<svg width="25" height="24" viewBox="0 0 25 24" fill="none" xmlns="http://www.w3.org/2000/svg">
<path d="M14.0293 2.26953V6.40007C14.0293 6.96012 14.0293 7.24015 14.1383 7.45406C14.2342 7.64222 14.3871 7.7952 14.5753 7.89108C14.7892 8.00007 15.0692 8.00007 15.6293 8.00007H19.7598M9.5293 12L14.5293 17M14.5293 12L9.5293 17M14.0293 2H8.8293C7.14914 2 6.30906 2 5.66733 2.32698C5.10284 2.6146 4.6439 3.07354 4.35628 3.63803C4.0293 4.27976 4.0293 5.11984 4.0293 6.8V17.2C4.0293 18.8802 4.0293 19.7202 4.35628 20.362C4.6439 20.9265 5.10284 21.3854 5.66733 21.673C6.30906 22 7.14914 22 8.8293 22H15.2293C16.9095 22 17.7495 22 18.3913 21.673C18.9558 21.3854 19.4147 20.9265 19.7023 20.362C20.0293 19.7202 20.0293 18.8802 20.0293 17.2V8L14.0293 2Z" stroke="white" stroke-width="2" stroke-linecap="round" stroke-linejoin="round"/>
</svg>
