<svg width="25" height="24" viewBox="0 0 25 24" fill="none" xmlns="http://www.w3.org/2000/svg">
<path d="M14.2295 2.26946V6.4C14.2295 6.96005 14.2295 7.24008 14.3385 7.45399C14.4344 7.64215 14.5873 7.79513 14.7755 7.89101C14.9894 8 15.2694 8 15.8295 8H19.96M20.2295 9.98822V17.2C20.2295 18.8802 20.2295 19.7202 19.9025 20.362C19.6149 20.9265 19.156 21.3854 18.5915 21.673C17.9497 22 17.1096 22 15.4295 22H9.02949C7.34933 22 6.50926 22 5.86752 21.673C5.30303 21.3854 4.84409 20.9265 4.55647 20.362C4.22949 19.7202 4.22949 18.8802 4.22949 17.2V6.8C4.22949 5.11984 4.22949 4.27976 4.55647 3.63803C4.84409 3.07354 5.30303 2.6146 5.86752 2.32698C6.50926 2 7.34933 2 9.02949 2H12.2413C12.975 2 13.3419 2 13.6872 2.08289C13.9933 2.15638 14.2859 2.27759 14.5543 2.44208C14.8571 2.6276 15.1165 2.88703 15.6354 3.40589L18.8236 6.59411C19.3425 7.11297 19.6019 7.3724 19.7874 7.67515C19.9519 7.94356 20.0731 8.2362 20.1466 8.5423C20.2295 8.88757 20.2295 9.25445 20.2295 9.98822Z" stroke="white" stroke-width="2" stroke-linecap="round" stroke-linejoin="round"/>
</svg>
