<svg width="25" height="25" viewBox="0 0 25 25" fill="none" xmlns="http://www.w3.org/2000/svg">
<g clip-path="url(#clip0_269_13157)">
<path d="M8.62891 7.90137C8.62891 8.96223 9.05033 9.97965 9.80048 10.7298C10.5506 11.4799 11.568 11.9014 12.6289 11.9014C13.6898 11.9014 14.7072 11.4799 15.4573 10.7298C16.2075 9.97965 16.6289 8.96223 16.6289 7.90137C16.6289 6.8405 16.2075 5.82309 15.4573 5.07294C14.7072 4.32279 13.6898 3.90137 12.6289 3.90137C11.568 3.90137 10.5506 4.32279 9.80048 5.07294C9.05033 5.82309 8.62891 6.8405 8.62891 7.90137Z" stroke="white" stroke-width="1.5" stroke-linecap="round" stroke-linejoin="round"/>
<path d="M6.62891 21.9014V19.9014C6.62891 18.8405 7.05033 17.8231 7.80048 17.0729C8.55062 16.3228 9.56804 15.9014 10.6289 15.9014H14.6289" stroke="white" stroke-width="1.5" stroke-linecap="round" stroke-linejoin="round"/>
<path d="M15.6289 19.9014L17.6289 21.9014L21.6289 17.9014" stroke="white" stroke-width="1.5" stroke-linecap="round" stroke-linejoin="round"/>
</g>
<defs>
<clipPath id="clip0_269_13157">
<rect width="24" height="24" fill="white" transform="translate(0.628906 0.901367)"/>
</clipPath>
</defs>
</svg>
