<svg width="111" height="24" viewBox="0 0 111 24" fill="none" xmlns="http://www.w3.org/2000/svg">
<path fill-rule="evenodd" clip-rule="evenodd" d="M43.726 21.4068C45.3311 21.4068 46.7289 21.1309 47.9192 20.5792C49.1095 20.0275 50.0338 19.2722 50.6921 18.3134C51.3504 17.3547 51.6976 16.2783 51.7336 15.0844C51.7517 14.9216 51.7021 14.7859 51.5849 14.6774C51.4676 14.5688 51.3279 14.5145 51.1655 14.5145H48.5414C48.325 14.5145 48.1627 14.5643 48.0545 14.6638C47.9463 14.7633 47.8561 14.9397 47.7839 15.1929C47.5134 16.3145 47.04 17.1059 46.3637 17.5672C45.6873 18.0285 44.8081 18.2592 43.726 18.2592C41.147 18.2592 39.8034 16.812 39.6951 13.9176C39.6771 13.393 39.6681 13.3477 39.6681 12.3347C39.6681 11.3217 39.6771 10.5709 39.6951 10.0825C39.8034 7.18811 41.147 5.74091 43.726 5.74091C44.8262 5.74091 45.7099 5.97156 46.3772 6.43286C47.0445 6.89415 47.5134 7.68559 47.7839 8.80716C47.8561 9.06042 47.9463 9.2368 48.0545 9.33629C48.1627 9.43579 48.325 9.48554 48.5414 9.48554H51.1655C51.3098 9.48554 51.4406 9.43579 51.5578 9.33629C51.675 9.2368 51.7336 9.11469 51.7336 8.96997V8.9157C51.6976 7.72177 51.3504 6.64541 50.6921 5.68665C50.0338 4.72788 49.1095 3.97262 47.9192 3.42088C46.7289 2.86913 45.3311 2.59326 43.726 2.59326C41.2552 2.59326 39.3344 3.23998 37.9638 4.53341C36.5931 5.82684 35.8627 7.63132 35.7725 9.94683C35.7563 10.4 35.7474 11.0994 35.7457 12.045V12.7272C35.7474 13.6566 35.7563 13.6162 35.7725 14.0533C35.8627 16.4049 36.5886 18.2185 37.9502 19.4938C39.3119 20.7692 41.2372 21.4068 43.726 21.4068ZM57.7749 21.4068C58.877 21.4068 59.7954 21.2283 60.5301 20.8712C61.2648 20.5141 61.8342 20.0568 62.2382 19.4993V20.5184C62.2382 20.6926 62.3025 20.8407 62.4311 20.9626C62.5597 21.0846 62.7158 21.1455 62.8995 21.1455H65.1862C65.3883 21.1455 65.549 21.0846 65.6684 20.9626C65.7878 20.8407 65.8475 20.6926 65.8475 20.5184V12.3136C65.8475 10.8155 65.3515 9.6048 64.3597 8.68155C63.3678 7.75829 61.7882 7.29666 59.6209 7.29666C58.2984 7.29666 57.1872 7.50134 56.2872 7.91071C55.3872 8.32008 54.7213 8.79913 54.2897 9.34786C53.8581 9.89659 53.6331 10.3887 53.6147 10.8242C53.6147 10.9984 53.6744 11.1378 53.7938 11.2423C53.9132 11.3468 54.0555 11.3991 54.2208 11.3991H56.3698C56.5719 11.3991 56.7096 11.2945 56.7831 11.0855C56.8272 11.0437 56.8994 10.9752 56.9997 10.8801L57.2377 10.6544C57.4673 10.4366 57.7658 10.2232 58.1331 10.0142C58.5005 9.80513 58.9872 9.70061 59.5933 9.70061C60.475 9.70061 61.1178 9.89223 61.5219 10.2755C61.926 10.6587 62.128 11.2249 62.128 11.9739V12.5226L58.3535 13.0452C56.5902 13.3065 55.2035 13.803 54.1933 14.5347C53.1831 15.2663 52.678 16.2244 52.678 17.4089C52.678 18.1406 52.903 18.8113 53.353 19.421C53.803 20.0307 54.4183 20.5141 55.1989 20.8712C55.9795 21.2283 56.8382 21.4068 57.7749 21.4068ZM58.8033 18.5848C58.1558 18.5848 57.6001 18.4133 57.1363 18.0704C56.6726 17.7274 56.4407 17.2424 56.4407 16.6153C56.4407 15.459 57.447 14.7045 59.4596 14.3517L62.0847 13.8814V14.4693C62.0847 15.802 61.7785 16.821 61.1659 17.5265C60.5534 18.232 59.7659 18.5848 58.8033 18.5848ZM75.8654 21.4068C78.4837 21.4068 80.4211 20.8111 81.6775 19.6195C82.934 18.428 83.5973 16.578 83.6676 14.0695C83.7028 13.0303 83.7203 12.3405 83.7203 12C83.7203 11.6417 83.7028 10.9429 83.6676 9.90368C83.5622 5.03007 80.9175 2.59327 75.7336 2.59327H69.3021C69.1088 2.59327 68.955 2.65598 68.8408 2.78141C68.7266 2.90683 68.6695 3.06809 68.6695 3.26518V20.7618C68.6695 20.941 68.731 21.0933 68.854 21.2187C68.977 21.3441 69.1264 21.4068 69.3021 21.4068H75.8654ZM75.7507 18.5848H72.4322V5.4153H75.6201C77.0833 5.4153 78.1547 5.77643 78.834 6.49869C79.5134 7.22095 79.8705 8.35124 79.9054 9.88955C79.9402 10.9776 79.9576 11.6718 79.9576 11.9719C79.9576 12.2533 79.9402 12.9568 79.9054 14.0824C79.8705 15.6958 79.5308 16.8495 78.8863 17.5436C78.2418 18.2377 77.1966 18.5848 75.7507 18.5848ZM88.8173 21.4068C89.9194 21.4068 90.8377 21.2283 91.5724 20.8712C92.3071 20.5141 92.8765 20.0568 93.2806 19.4993V20.5184C93.2806 20.6926 93.3449 20.8407 93.4735 20.9626C93.6021 21.0846 93.7582 21.1455 93.9418 21.1455H96.2286C96.4306 21.1455 96.5914 21.0846 96.7108 20.9626C96.8301 20.8407 96.8898 20.6926 96.8898 20.5184V12.3136C96.8898 10.8155 96.3939 9.6048 95.4021 8.68155C94.4102 7.75829 92.8306 7.29666 90.6633 7.29666C89.3408 7.29666 88.2296 7.50134 87.3296 7.91071C86.4295 8.32008 85.7637 8.79913 85.3321 9.34786C84.9005 9.89659 84.6754 10.3887 84.6571 10.8242C84.6571 10.9984 84.7168 11.1378 84.8362 11.2423C84.9556 11.3468 85.0979 11.3991 85.2632 11.3991H87.4122C87.6143 11.3991 87.752 11.2945 87.8255 11.0855C87.8696 11.0437 87.9417 10.9752 88.042 10.8801L88.2801 10.6544C88.5097 10.4366 88.8081 10.2232 89.1755 10.0142C89.5428 9.80513 90.0296 9.70061 90.6357 9.70061C91.5173 9.70061 92.1602 9.89223 92.5643 10.2755C92.9684 10.6587 93.1704 11.2249 93.1704 11.9739V12.5226L89.3959 13.0452C87.6326 13.3065 86.2459 13.803 85.2357 14.5347C84.2254 15.2663 83.7203 16.2244 83.7203 17.4089C83.7203 18.1406 83.9453 18.8113 84.3953 19.421C84.8453 20.0307 85.4607 20.5141 86.2413 20.8712C87.0219 21.2283 87.8806 21.4068 88.8173 21.4068ZM89.8457 18.5848C89.1982 18.5848 88.6425 18.4133 88.1787 18.0704C87.7149 17.7274 87.4831 17.2424 87.4831 16.6153C87.4831 15.459 88.4894 14.7045 90.502 14.3517L93.1271 13.8814V14.4693C93.1271 15.802 92.8209 16.821 92.2083 17.5265C91.5958 18.232 90.8082 18.5848 89.8457 18.5848ZM104.806 21.4068C106.755 21.4068 108.275 21.0236 109.365 20.2571C110.455 19.4906 111 18.489 111 17.2522C111 15.1269 109.405 13.7595 106.215 13.1498C105.187 12.9581 104.416 12.7709 103.902 12.588C103.388 12.4051 103.047 12.2091 102.878 12C102.71 11.791 102.626 11.5297 102.626 11.2162C102.626 10.7632 102.803 10.3974 103.158 10.1187C103.512 9.83997 104.017 9.70061 104.673 9.70061C105.151 9.70061 105.559 9.77029 105.896 9.90965C106.233 10.049 106.538 10.2363 106.813 10.4714C107.088 10.7066 107.287 10.8678 107.411 10.9549C107.517 11.0942 107.668 11.1639 107.863 11.1639H109.857C110.016 11.1639 110.154 11.1073 110.269 10.994C110.384 10.8808 110.442 10.7458 110.442 10.589C110.442 10.1884 110.216 9.72674 109.764 9.20415C109.312 8.68155 108.652 8.23298 107.783 7.85845C106.915 7.48392 105.878 7.29666 104.673 7.29666C103.503 7.29666 102.497 7.49263 101.656 7.88458C100.814 8.27653 100.18 8.78171 99.7548 9.40012C99.3295 10.0185 99.1168 10.6761 99.1168 11.3729C99.1168 12.4355 99.4757 13.2891 100.193 13.9337C100.911 14.5782 102.023 15.0573 103.53 15.3708C104.575 15.5973 105.36 15.802 105.883 15.9849C106.405 16.1678 106.769 16.3681 106.972 16.5859C107.176 16.8036 107.278 17.0867 107.278 17.4351C107.278 17.9403 107.057 18.3279 106.614 18.5979C106.171 18.8679 105.595 19.0029 104.886 19.0029C104.407 19.0029 103.968 18.9288 103.57 18.7808C103.171 18.6327 102.816 18.428 102.506 18.1667C102.196 17.9054 101.997 17.7399 101.908 17.6702C101.802 17.5309 101.678 17.4612 101.536 17.4612H99.356C99.1965 17.4612 99.0592 17.5135 98.944 17.618C98.8288 17.7225 98.7712 17.8619 98.7712 18.0361C98.7712 18.4193 98.9883 18.8766 99.4225 19.4079C99.8567 19.9392 100.526 20.4052 101.43 20.8058C102.333 21.2065 103.459 21.4068 104.806 21.4068Z" fill="#EE7C21"/>
<path fill-rule="evenodd" clip-rule="evenodd" d="M21.6367 0.711914L30.0993 8.23734L15.0508 23.2882L0 8.23734L8.46673 0.711914H21.6367ZM18.8093 6.35598H11.2881L8.4661 9.17802L15.0508 15.7628L21.6356 9.17802L18.8093 6.35598Z" fill="#EE7C21"/>
</svg>
