<svg width="118" height="24" viewBox="0 0 118 24" fill="none" xmlns="http://www.w3.org/2000/svg">
<path fill-rule="evenodd" clip-rule="evenodd" d="M46.4835 22C48.1899 22 49.6758 21.7067 50.9412 21.1202C52.2066 20.5337 53.1892 19.7308 53.8889 18.7115C54.5887 17.6923 54.9578 16.5481 54.9962 15.2788C55.0153 15.1058 54.9626 14.9615 54.838 14.8462C54.7134 14.7308 54.5648 14.6731 54.3922 14.6731H51.6026C51.3725 14.6731 51.2 14.726 51.085 14.8317C50.9699 14.9375 50.8741 15.125 50.7974 15.3942C50.5098 16.5865 50.0065 17.4279 49.2875 17.9183C48.5686 18.4087 47.6339 18.6538 46.4835 18.6538C43.7419 18.6538 42.3135 17.1154 42.1985 14.0385C42.1793 13.4808 42.1697 13.4327 42.1697 12.3558C42.1697 11.2788 42.1793 10.4808 42.1985 9.96154C42.3135 6.88461 43.7419 5.34615 46.4835 5.34615C47.6531 5.34615 48.5925 5.59135 49.3019 6.08173C50.0113 6.57212 50.5098 7.41346 50.7974 8.60577C50.8741 8.875 50.9699 9.0625 51.085 9.16827C51.2 9.27404 51.3725 9.32692 51.6026 9.32692H54.3922C54.5456 9.32692 54.6846 9.27404 54.8092 9.16827C54.9339 9.0625 54.9962 8.93269 54.9962 8.77885V8.72115C54.9578 7.45192 54.5887 6.30769 53.8889 5.28846C53.1892 4.26923 52.2066 3.46635 50.9412 2.87981C49.6758 2.29327 48.1899 2 46.4835 2C43.8569 2 41.815 2.6875 40.3579 4.0625C38.9008 5.4375 38.1243 7.35577 38.0284 9.81731C38.0113 10.2991 38.0018 11.0426 38 12.0478V12.773C38.0018 13.7611 38.0113 13.7181 38.0284 14.1827C38.1243 16.6827 38.896 18.6106 40.3435 19.9663C41.7911 21.3221 43.8377 22 46.4835 22ZM61.4184 22C62.59 22 63.5662 21.8102 64.3473 21.4306C65.1283 21.0509 65.7336 20.5648 66.1632 19.9722V21.0556C66.1632 21.2407 66.2315 21.3981 66.3682 21.5278C66.5049 21.6574 66.6709 21.7222 66.8661 21.7222H69.2971C69.5119 21.7222 69.6827 21.6574 69.8096 21.5278C69.9365 21.3981 70 21.2407 70 21.0556V12.3333C70 10.7407 69.4728 9.4537 68.4184 8.47222C67.364 7.49074 65.6848 7 63.3808 7C61.9749 7 60.7936 7.21759 59.8368 7.65278C58.8801 8.08796 58.1722 8.59722 57.7134 9.18056C57.2545 9.76389 57.0153 10.287 56.9958 10.75C56.9958 10.9352 57.0593 11.0833 57.1862 11.1944C57.3131 11.3056 57.4644 11.3611 57.6402 11.3611H59.9247C60.1395 11.3611 60.2859 11.25 60.364 11.0278C60.4109 10.9833 60.4876 10.9106 60.5942 10.8094L60.8473 10.5694C61.0914 10.338 61.4086 10.1111 61.7992 9.88889C62.1897 9.66667 62.7071 9.55556 63.3515 9.55556C64.2887 9.55556 64.9721 9.75926 65.4017 10.1667C65.8312 10.5741 66.046 11.1759 66.046 11.9722V12.5556L62.0335 13.1111C60.159 13.3889 58.6848 13.9167 57.6109 14.6944C56.537 15.4722 56 16.4907 56 17.75C56 18.5278 56.2392 19.2407 56.7176 19.8889C57.196 20.537 57.8501 21.0509 58.6799 21.4306C59.5098 21.8102 60.4226 22 61.4184 22ZM62.5116 19C61.8233 19 61.2326 18.8177 60.7395 18.4531C60.2465 18.0885 60 17.5729 60 16.9062C60 15.6771 61.0698 14.875 63.2093 14.5L66 14V14.625C66 16.0417 65.6744 17.125 65.0233 17.875C64.3721 18.625 63.5349 19 62.5116 19ZM80.6497 22C83.4332 22 85.4927 21.3667 86.8284 20.1C88.164 18.8333 88.8692 16.8667 88.944 14.2C88.9813 13.0952 89 12.3619 89 12C89 11.619 88.9813 10.8762 88.944 9.77143C88.8319 4.59048 86.0204 2 80.5096 2H73.6725C73.467 2 73.3036 2.06667 73.1821 2.2C73.0607 2.33333 73 2.50476 73 2.71429V21.3143C73 21.5048 73.0654 21.6667 73.1961 21.8C73.3269 21.9333 73.4857 22 73.6725 22H80.6497ZM80.5278 19H77V5H80.3889C81.9444 5 83.0833 5.3839 83.8056 6.15171C84.5278 6.91952 84.9074 8.12108 84.9444 9.75641C84.9815 10.9131 85 11.651 85 11.9701C85 12.2692 84.9815 13.0171 84.9444 14.2137C84.9074 15.9288 84.5463 17.1553 83.8611 17.8932C83.1759 18.6311 82.0648 19 80.5278 19ZM94.4184 22C95.59 22 96.5662 21.8102 97.3473 21.4306C98.1283 21.0509 98.7336 20.5648 99.1632 19.9722V21.0556C99.1632 21.2407 99.2315 21.3981 99.3682 21.5278C99.5049 21.6574 99.6709 21.7222 99.8661 21.7222H102.297C102.512 21.7222 102.683 21.6574 102.81 21.5278C102.937 21.3981 103 21.2407 103 21.0556V12.3333C103 10.7407 102.473 9.4537 101.418 8.47222C100.364 7.49074 98.6848 7 96.3808 7C94.9749 7 93.7936 7.21759 92.8368 7.65278C91.8801 8.08796 91.1722 8.59722 90.7134 9.18056C90.2545 9.76389 90.0153 10.287 89.9958 10.75C89.9958 10.9352 90.0593 11.0833 90.1862 11.1944C90.3131 11.3056 90.4644 11.3611 90.6402 11.3611H92.9247C93.1395 11.3611 93.2859 11.25 93.364 11.0278C93.4109 10.9833 93.4876 10.9106 93.5942 10.8094L93.8473 10.5694C94.0914 10.338 94.4086 10.1111 94.7992 9.88889C95.1897 9.66667 95.7071 9.55556 96.3515 9.55556C97.2887 9.55556 97.9721 9.75926 98.4017 10.1667C98.8312 10.5741 99.046 11.1759 99.046 11.9722V12.5556L95.0335 13.1111C93.159 13.3889 91.6848 13.9167 90.6109 14.6944C89.537 15.4722 89 16.4907 89 17.75C89 18.5278 89.2392 19.2407 89.7176 19.8889C90.196 20.537 90.8501 21.0509 91.6799 21.4306C92.5098 21.8102 93.4226 22 94.4184 22ZM95.5116 19C94.8233 19 94.2326 18.8177 93.7395 18.4531C93.2465 18.0885 93 17.5729 93 16.9062C93 15.6771 94.0698 14.875 96.2093 14.5L99 14V14.625C99 16.0417 98.6744 17.125 98.0233 17.875C97.3721 18.625 96.5349 19 95.5116 19ZM111.415 22C113.488 22 115.103 21.5926 116.262 20.7778C117.421 19.963 118 18.8981 118 17.5833C118 15.3241 116.304 13.8704 112.913 13.2222C111.82 13.0185 111.001 12.8194 110.454 12.625C109.908 12.4306 109.545 12.2222 109.366 12C109.187 11.7778 109.098 11.5 109.098 11.1667C109.098 10.6852 109.286 10.2963 109.663 10C110.04 9.7037 110.577 9.55556 111.274 9.55556C111.783 9.55556 112.216 9.62963 112.574 9.77778C112.932 9.92593 113.257 10.125 113.549 10.375C113.841 10.625 114.053 10.7963 114.185 10.8889C114.298 11.037 114.458 11.1111 114.665 11.1111H116.785C116.954 11.1111 117.1 11.0509 117.223 10.9306C117.345 10.8102 117.407 10.6667 117.407 10.5C117.407 10.0741 117.166 9.58333 116.686 9.02778C116.205 8.47222 115.504 7.99537 114.58 7.59722C113.657 7.19907 112.555 7 111.274 7C110.03 7 108.961 7.20833 108.066 7.625C107.171 8.04167 106.498 8.5787 106.046 9.23611C105.593 9.89352 105.367 10.5926 105.367 11.3333C105.367 12.463 105.749 13.3704 106.512 14.0556C107.275 14.7407 108.457 15.25 110.059 15.5833C111.17 15.8241 112.004 16.0417 112.56 16.2361C113.116 16.4306 113.502 16.6435 113.718 16.875C113.935 17.1065 114.043 17.4074 114.043 17.7778C114.043 18.3148 113.808 18.7269 113.337 19.0139C112.866 19.3009 112.254 19.4444 111.5 19.4444C110.991 19.4444 110.525 19.3657 110.101 19.2083C109.677 19.0509 109.3 18.8333 108.971 18.5556C108.641 18.2778 108.429 18.1019 108.335 18.0278C108.222 17.8796 108.09 17.8056 107.939 17.8056H105.622C105.452 17.8056 105.306 17.8611 105.184 17.9722C105.061 18.0833 105 18.2315 105 18.4167C105 18.8241 105.231 19.3102 105.692 19.875C106.154 20.4398 106.865 20.9352 107.826 21.3611C108.787 21.787 109.983 22 111.415 22Z" fill="#4360AA"/>
<path fill-rule="evenodd" clip-rule="evenodd" d="M23.0011 0L31.9975 8L16 24L0 8L9.00067 0H23.0011ZM19.9955 6H12L9 9L16 16L23 9L19.9955 6Z" fill="#4360AA"/>
</svg>
