<?xml version="1.0" encoding="UTF-8"?>
<svg id="Layer_1" data-name="Layer 1" xmlns="http://www.w3.org/2000/svg" xmlns:xlink="http://www.w3.org/1999/xlink" viewBox="0 0 1714.46 1989.38">
  <defs>
    <linearGradient id="linear-gradient" x1="870.11" y1="195.01" x2="845.15" y2="1783.02" gradientUnits="userSpaceOnUse">
      <stop offset="0" stop-color="#0982fe"/>
      <stop offset="0" stop-color="#0986fe"/>
      <stop offset="0" stop-color="#0c9cfe"/>
      <stop offset="0" stop-color="#0fadfe"/>
      <stop offset="0" stop-color="#10b9fe"/>
      <stop offset="0" stop-color="#11c0fe"/>
      <stop offset="0" stop-color="#12c2ff"/>
      <stop offset=".15" stop-color="#13b9fe"/>
      <stop offset=".39" stop-color="#16a1fb"/>
      <stop offset=".69" stop-color="#1c7af7"/>
      <stop offset="1" stop-color="#244bf3"/>
    </linearGradient>
  </defs>
  <g>
    <path d="M7.28,1986.83l99.48-314.18h80.19l99.48,314.18h-66.03l-20.15-65.81h-108.05l-19.72,65.81H7.28ZM107.19,1864.56h78.04l-39.02-137.99-39.02,137.99Z" style="fill: #ff8c00; stroke-width: 0px;"/>
    <path d="M423.65,1989.38c-18.58,0-34.95-2.12-49.1-6.37-14.15-4.25-26.16-12.03-36.02-23.35-9.86-11.32-17.3-27.52-22.3-48.61-5.01-21.08-7.51-48.47-7.51-82.15s2.64-59.23,7.93-80.04c5.29-20.8,12.93-36.94,22.94-48.4,10-11.46,22.15-19.45,36.45-23.99,14.29-4.52,30.44-6.79,48.46-6.79,14.29,0,27.66.78,40.09,2.33,12.44,1.56,23.65,3.4,33.66,5.52,10,2.12,18.44,4.46,25.3,7.01v48.82c-5.15-1.12-12.08-2.26-20.8-3.39-8.72-1.13-18.65-2.05-29.8-2.76-11.15-.7-22.88-1.06-35.17-1.06s-22.23,1.34-30.66,4.03c-8.44,2.69-15.16,7.64-20.15,14.86-5,7.22-8.72,17.62-11.15,31.2-2.43,13.59-3.65,31.28-3.65,53.07s1.07,38.21,3.22,51.8c2.14,13.59,5.64,24.14,10.51,31.63,4.86,7.5,11.5,12.74,19.94,15.71,8.43,2.97,19.08,4.46,31.94,4.46,21.72,0,39.38-.43,52.96-1.27,13.57-.85,24.51-1.84,32.8-2.97v48.4c-7.72,2.55-16.59,4.75-26.59,6.58-10.01,1.84-21.01,3.25-33.01,4.25-12.01.99-25.45,1.48-40.31,1.48Z" style="fill: #ff8c00; stroke-width: 0px;"/>
    <path d="M670.64,1989.38c-18.58,0-34.95-2.12-49.1-6.37-14.15-4.25-26.16-12.03-36.02-23.35-9.86-11.32-17.3-27.52-22.3-48.61-5.01-21.08-7.51-48.47-7.51-82.15s2.64-59.23,7.93-80.04c5.29-20.8,12.93-36.94,22.94-48.4,10-11.46,22.15-19.45,36.45-23.99,14.29-4.52,30.44-6.79,48.46-6.79,14.29,0,27.66.78,40.09,2.33,12.44,1.56,23.65,3.4,33.66,5.52,10,2.12,18.44,4.46,25.3,7.01v48.82c-5.15-1.12-12.08-2.26-20.8-3.39-8.72-1.13-18.65-2.05-29.8-2.76-11.15-.7-22.88-1.06-35.17-1.06s-22.23,1.34-30.66,4.03c-8.44,2.69-15.16,7.64-20.15,14.86-5,7.22-8.72,17.62-11.15,31.2-2.43,13.59-3.65,31.28-3.65,53.07s1.07,38.21,3.22,51.8c2.14,13.59,5.64,24.14,10.51,31.63,4.86,7.5,11.5,12.74,19.94,15.71,8.43,2.97,19.08,4.46,31.94,4.46,21.72,0,39.38-.43,52.96-1.27,13.57-.85,24.51-1.84,32.8-2.97v48.4c-7.72,2.55-16.59,4.75-26.59,6.58-10.01,1.84-21.01,3.25-33.01,4.25-12.01.99-25.45,1.48-40.31,1.48Z" style="fill: #ff8c00; stroke-width: 0px;"/>
    <path d="M933.49,1989.38c-21.73,0-40.74-2.06-57.03-6.16-16.29-4.1-29.95-11.74-40.95-22.93-11-11.18-19.23-27.24-24.65-48.19-5.43-20.94-8.15-48.25-8.15-81.94s2.79-61.07,8.36-82.15c5.58-21.09,13.79-37.29,24.66-48.61,10.86-11.32,24.44-19.11,40.73-23.35,16.29-4.24,35.3-6.37,57.03-6.37s40.74,2.12,57.03,6.37c16.29,4.25,29.87,12.04,40.73,23.35,10.86,11.32,19.01,27.53,24.44,48.61,5.43,21.09,8.15,48.47,8.15,82.15s-2.72,61-8.15,81.94c-5.43,20.95-13.58,37.01-24.44,48.19-10.87,11.18-24.44,18.83-40.73,22.93-16.29,4.1-35.31,6.16-57.03,6.16ZM933.49,1932.91c12.86,0,23.58-1.41,32.16-4.24s15.36-7.86,20.37-15.07c5-7.22,8.64-17.55,10.94-31,2.29-13.44,3.43-30.92,3.43-52.44,0-22.64-1.14-40.76-3.43-54.35-2.29-13.58-5.94-23.99-10.94-31.2-5-7.22-11.79-12.1-20.37-14.65-8.58-2.55-19.3-3.82-32.16-3.82s-22.73,1.27-31.3,3.82c-8.58,2.55-15.51,7.43-20.8,14.65-5.29,7.22-9.15,17.62-11.58,31.2-2.43,13.59-3.65,31.71-3.65,54.35s1.07,39,3.22,52.44c2.14,13.45,5.79,23.78,10.93,31,5.15,7.22,12.08,12.24,20.8,15.07,8.72,2.83,19.51,4.24,32.37,4.24Z" style="fill: #ff8c00; stroke-width: 0px;"/>
    <path d="M1110.58,1986.83v-314.18h131.21c12.57,0,24.3,1.48,35.16,4.46,10.86,2.97,20.44,8.14,28.73,15.5,8.29,7.36,14.79,17.55,19.51,30.57,4.72,13.02,7.08,29.72,7.08,50.1,0,14.43-1.43,26.75-4.29,36.94-2.86,10.19-6.65,18.54-11.36,25.05-4.71,6.51-10.08,11.75-16.08,15.71-6.01,3.97-12.15,7.22-18.44,9.77l59.17,126.1h-64.75l-51.03-116.33c-3.43,0-7.36-.07-11.79-.21-4.44-.14-8.94-.21-13.51-.21h-13.72c-4.58,0-8.72-.14-12.44-.43v117.18h-63.46ZM1174.04,1819.98h56.6c5.72,0,10.86-.7,15.44-2.13,4.57-1.41,8.58-3.89,12.01-7.43,3.43-3.54,6.07-8.28,7.93-14.22,1.86-5.95,2.79-13.59,2.79-22.93,0-8.77-.93-16.06-2.79-21.87-1.86-5.8-4.5-10.33-7.93-13.58-3.43-3.25-7.44-5.52-12.01-6.79-4.58-1.27-9.72-1.91-15.44-1.91h-56.6v90.86Z" style="fill: #ff8c00; stroke-width: 0px;"/>
    <path d="M1379.44,1986.83v-314.18h134.21c21.44,0,39.3,3.75,53.6,11.25,14.29,7.5,25.66,18.26,34.09,32.27,8.43,14.01,14.37,30.64,17.8,49.89,3.43,19.25,5.15,40.48,5.15,63.68,0,35.39-4.07,64.68-12.22,87.89-8.15,23.21-20.37,40.55-36.67,52.01-16.29,11.46-36.87,17.19-61.75,17.19h-134.21ZM1442.9,1930.37h64.32c13.14,0,23.58-3.75,31.3-11.25,7.72-7.5,13.36-18.75,16.94-33.75,3.57-15,5.36-33.54,5.36-55.62,0-20.38-1.14-37.15-3.43-50.31-2.29-13.16-5.65-23.42-10.08-30.78-4.44-7.35-10.01-12.45-16.72-15.29-6.72-2.82-14.51-4.24-23.37-4.24h-64.32v201.25Z" style="fill: #ff8c00; stroke-width: 0px;"/>
  </g>
  <path d="M273.9,1213.19l-37.58,66.37h298.67l4.29-66.38-265.38.02ZM487.96,1220.23l47.02,59.19,449.95-780.31-.02-130.89-496.96,852.01ZM984.84,368.19l-.02,130.89,544.22,942.5,114.54,66.17L984.84,368.19ZM1036.73,1441.57l38.46,66.22,568.39-.05-114.54-66.17h-492.31ZM906.92,1084.46l-40.6,61.71,208.79,361.62,76.69-.28-244.88-423.05ZM93.82,1441.81l-38.45,65.94,611.22.06-38.23-66.24-534.54.24ZM628.37,1441.57l38.23,66.24,318.3-551.18v-132.82l-356.53,617.76ZM984.9,823.82v132.77s185.29,319.09,185.29,319.09l76.69-.35-261.98-451.51ZM813.27,207.3L187.64,1279.46l81.54.09L851.93,277.03l-38.66-69.72Z" style="fill: url(#linear-gradient); stroke-width: 0px;"/>
  <g>
    <circle cx="72.53" cy="1474.4" r="72.53" style="fill: #ff8c00; stroke-width: 0px;"/>
    <circle cx="1202.2" cy="1268.66" r="72.53" style="fill: #ffa13b; stroke-width: 0px;"/>
    <circle cx="849.48" cy="207.3" r="72.53" style="fill: #f9b06e; stroke-width: 0px;"/>
  </g>
</svg>