<svg width="148" height="30" viewBox="0 0 148 30" fill="none" xmlns="http://www.w3.org/2000/svg">
<path fill-rule="evenodd" clip-rule="evenodd" d="M58.0925 27.4976C60.225 27.4976 62.082 27.1311 63.6634 26.398C65.2448 25.665 66.4728 24.6616 67.3473 23.3878C68.2219 22.1141 68.6832 20.6841 68.7311 19.0979C68.755 18.8816 68.6891 18.7013 68.5334 18.5571C68.3777 18.4129 68.192 18.3408 67.9763 18.3408H64.49C64.2025 18.3408 63.9868 18.4069 63.8431 18.5391C63.6993 18.6713 63.5795 18.9056 63.4837 19.2421C63.1243 20.7321 62.4953 21.7836 61.5968 22.3965C60.6982 23.0093 59.5301 23.3157 58.0925 23.3157C54.6661 23.3157 52.881 21.3931 52.7372 17.5477C52.7133 16.8507 52.7013 16.7906 52.7013 15.4448C52.7013 14.0989 52.7133 13.1015 52.7372 12.4526C52.881 8.60723 54.6661 6.68454 58.0925 6.68454C59.5541 6.68454 60.7282 6.99097 61.6147 7.60383C62.5013 8.21668 63.1243 9.26815 63.4837 10.7582C63.5795 11.0947 63.6993 11.329 63.8431 11.4612C63.9868 11.5934 64.2025 11.6595 64.49 11.6595H67.9763C68.168 11.6595 68.3417 11.5934 68.4975 11.4612C68.6532 11.329 68.7311 11.1668 68.7311 10.9745V10.9024C68.6832 9.31622 68.2219 7.88622 67.3473 6.61244C66.4728 5.33867 65.2448 4.33527 63.6634 3.60224C62.082 2.86922 60.225 2.50271 58.0925 2.50271C54.8099 2.50271 52.258 3.36191 50.437 5.08031C48.616 6.7987 47.6456 9.19605 47.5258 12.2723C47.5043 12.8744 47.4925 13.8036 47.4902 15.0599V15.9662C47.4925 17.201 47.5043 17.1474 47.5258 17.7279C47.6456 20.8523 48.61 23.2617 50.419 24.956C52.2281 26.6504 54.7859 27.4976 58.0925 27.4976ZM76.7572 27.4976C78.2214 27.4976 79.4415 27.2603 80.4176 26.7859C81.3937 26.3115 82.1501 25.7039 82.687 24.9634V26.3172C82.687 26.5487 82.7724 26.7454 82.9432 26.9074C83.114 27.0694 83.3214 27.1504 83.5655 27.1504H86.6036C86.872 27.1504 87.0855 27.0694 87.2441 26.9074C87.4027 26.7454 87.482 26.5487 87.482 26.3172V15.4167C87.482 13.4264 86.8232 11.8179 85.5055 10.5913C84.1877 9.3647 82.0891 8.7514 79.2097 8.7514C77.4527 8.7514 75.9764 9.02334 74.7807 9.56721C73.585 10.1111 72.7004 10.7475 72.1269 11.4765C71.5535 12.2056 71.2545 12.8594 71.2301 13.4379C71.2301 13.6694 71.3094 13.8545 71.4681 13.9934C71.6267 14.1322 71.8158 14.2017 72.0354 14.2017H74.8905C75.1589 14.2017 75.3419 14.0628 75.4395 13.7851C75.4981 13.7295 75.594 13.6386 75.7272 13.5122L76.0435 13.2123C76.3485 12.923 76.745 12.6395 77.2331 12.3618C77.7211 12.0841 78.3678 11.9452 79.1731 11.9452C80.3444 11.9452 81.1985 12.1998 81.7353 12.7089C82.2722 13.2181 82.5406 13.9702 82.5406 14.9654V15.6944L77.5259 16.3887C75.1833 16.7359 73.3409 17.3955 71.9988 18.3675C70.6567 19.3395 69.9856 20.6124 69.9856 22.1861C69.9856 23.1582 70.2846 24.0492 70.8824 24.8592C71.4803 25.6692 72.2977 26.3115 73.3348 26.7859C74.3719 27.2603 75.5127 27.4976 76.7572 27.4976ZM78.1235 23.7483C77.2632 23.7483 76.525 23.5205 75.9088 23.0649C75.2927 22.6092 74.9846 21.9648 74.9846 21.1317C74.9846 19.5955 76.3215 18.5931 78.9954 18.1245L82.4831 17.4996V18.2807C82.4831 20.0512 82.0762 21.4051 81.2624 22.3424C80.4486 23.2797 79.4023 23.7483 78.1235 23.7483ZM100.791 27.4976C104.27 27.4976 106.844 26.706 108.513 25.123C110.182 23.54 111.064 21.0822 111.157 17.7496C111.204 16.3689 111.227 15.4524 111.227 15.0001C111.227 14.524 111.204 13.5956 111.157 12.215C111.017 5.74012 107.503 2.50269 100.616 2.50269H92.0717C91.8149 2.50269 91.6106 2.586 91.4589 2.75263C91.3071 2.91927 91.2313 3.13351 91.2313 3.39536V26.6406C91.2313 26.8786 91.313 27.081 91.4764 27.2476C91.6398 27.4142 91.8383 27.4976 92.0717 27.4976H100.791ZM100.639 23.7483H96.2302V6.25192H100.465C102.41 6.25192 103.833 6.7317 104.735 7.69126C105.638 8.65082 106.112 10.1525 106.159 12.1962C106.205 13.6418 106.228 14.564 106.228 14.9627C106.228 15.3366 106.205 16.2712 106.159 17.7666C106.112 19.9101 105.661 21.4429 104.805 22.3651C103.949 23.2872 102.56 23.7483 100.639 23.7483ZM117.999 27.4976C119.463 27.4976 120.683 27.2603 121.659 26.7859C122.635 26.3115 123.392 25.7039 123.929 24.9634V26.3172C123.929 26.5487 124.014 26.7454 124.185 26.9074C124.356 27.0694 124.563 27.1504 124.807 27.1504H127.845C128.114 27.1504 128.327 27.0694 128.486 26.9074C128.644 26.7454 128.724 26.5487 128.724 26.3172V15.4167C128.724 13.4264 128.065 11.8179 126.747 10.5913C125.429 9.3647 123.331 8.7514 120.451 8.7514C118.694 8.7514 117.218 9.02334 116.022 9.56721C114.826 10.1111 113.942 10.7475 113.368 11.4765C112.795 12.2056 112.496 12.8594 112.472 13.4379C112.472 13.6694 112.551 13.8545 112.71 13.9934C112.868 14.1322 113.057 14.2017 113.277 14.2017H116.132C116.4 14.2017 116.583 14.0628 116.681 13.7851C116.74 13.7295 116.836 13.6386 116.969 13.5122L117.285 13.2123C117.59 12.923 117.987 12.6395 118.475 12.3618C118.963 12.0841 119.609 11.9452 120.415 11.9452C121.586 11.9452 122.44 12.1998 122.977 12.7089C123.514 13.2181 123.782 13.9702 123.782 14.9654V15.6944L118.767 16.3887C116.425 16.7359 114.582 17.3955 113.24 18.3675C111.898 19.3395 111.227 20.6124 111.227 22.1861C111.227 23.1582 111.526 24.0492 112.124 24.8592C112.722 25.6692 113.539 26.3115 114.576 26.7859C115.613 27.2603 116.754 27.4976 117.999 27.4976ZM119.365 23.7483C118.505 23.7483 117.767 23.5205 117.15 23.0649C116.534 22.6092 116.226 21.9648 116.226 21.1317C116.226 19.5955 117.563 18.5931 120.237 18.1245L123.725 17.4996V18.2807C123.725 20.0512 123.318 21.4051 122.504 22.3424C121.69 23.2797 120.644 23.7483 119.365 23.7483ZM139.24 27.4976C141.83 27.4976 143.85 26.9884 145.298 25.9701C146.746 24.9518 147.47 23.621 147.47 21.9779C147.47 19.1544 145.351 17.3376 141.112 16.5276C139.747 16.273 138.722 16.0242 138.04 15.7812C137.357 15.5382 136.903 15.2778 136.68 15.0001C136.456 14.7224 136.344 14.3752 136.344 13.9587C136.344 13.3569 136.58 12.8709 137.051 12.5006C137.522 12.1303 138.193 11.9452 139.064 11.9452C139.7 11.9452 140.241 12.0378 140.688 12.2229C141.136 12.4081 141.542 12.6568 141.907 12.9693C142.272 13.2817 142.537 13.4958 142.702 13.6115C142.843 13.7967 143.043 13.8892 143.302 13.8892H145.951C146.163 13.8892 146.345 13.814 146.498 13.6636C146.651 13.5132 146.728 13.3338 146.728 13.1255C146.728 12.5932 146.428 11.9799 145.827 11.2856C145.227 10.5913 144.35 9.99536 143.196 9.49778C142.042 9.00019 140.665 8.7514 139.064 8.7514C137.51 8.7514 136.174 9.01177 135.055 9.53249C133.937 10.0532 133.095 10.7244 132.53 11.546C131.965 12.3676 131.682 13.2412 131.682 14.167C131.682 15.5787 132.159 16.7127 133.113 17.569C134.066 18.4253 135.544 19.0618 137.545 19.4784C138.934 19.7792 139.976 20.0512 140.671 20.2942C141.365 20.5372 141.848 20.8033 142.119 21.0926C142.39 21.3819 142.525 21.758 142.525 22.2209C142.525 22.892 142.231 23.407 141.642 23.7657C141.053 24.1244 140.288 24.3038 139.346 24.3038C138.711 24.3038 138.128 24.2054 137.598 24.0087C137.068 23.812 136.597 23.54 136.185 23.1929C135.773 22.8457 135.508 22.6259 135.391 22.5333C135.249 22.3481 135.085 22.2556 134.896 22.2556H132C131.788 22.2556 131.606 22.325 131.453 22.4639C131.3 22.6027 131.223 22.7879 131.223 23.0193C131.223 23.5285 131.511 24.136 132.088 24.8418C132.665 25.5477 133.554 26.1668 134.755 26.6991C135.956 27.2314 137.451 27.4976 139.24 27.4976Z" fill="#EE7C21"/>
<path fill-rule="evenodd" clip-rule="evenodd" d="M28.7455 0.00317383L39.9886 10.0011L19.9959 29.997L0 10.0011L11.2485 0.00317383H28.7455ZM24.9892 7.50163H14.9969L11.2477 11.2509L19.9959 19.9991L28.7441 11.2509L24.9892 7.50163Z" fill="white"/>
</svg>
