<?xml version="1.0" encoding="UTF-8"?>
<svg id="Layer_1" data-name="Layer 1" xmlns="http://www.w3.org/2000/svg" xmlns:xlink="http://www.w3.org/1999/xlink" viewBox="0 0 392.63 369.54">
  <defs>
    <linearGradient id="linear-gradient" x1="207.86" y1="46.58" x2="201.89" y2="425.94" gradientUnits="userSpaceOnUse">
      <stop offset="0" stop-color="#0982fe"/>
      <stop offset="0" stop-color="#0986fe"/>
      <stop offset="0" stop-color="#0c9cfe"/>
      <stop offset="0" stop-color="#0fadfe"/>
      <stop offset="0" stop-color="#10b9fe"/>
      <stop offset="0" stop-color="#11c0fe"/>
      <stop offset="0" stop-color="#12c2ff"/>
      <stop offset=".15" stop-color="#13b9fe"/>
      <stop offset=".39" stop-color="#16a1fb"/>
      <stop offset=".69" stop-color="#1c7af7"/>
      <stop offset="1" stop-color="#244bf3"/>
    </linearGradient>
  </defs>
  <path d="M65.43,289.81l-8.98,15.85h71.35l1.03-15.86h-63.39ZM116.57,291.49l11.23,14.14,107.49-186.4v-31.27s-118.72,203.53-118.72,203.53ZM235.26,87.96v31.27s130,225.15,130,225.15l27.36,15.81L235.26,87.96ZM247.66,344.37l9.19,15.82h135.78s-27.36-15.82-27.36-15.82h-117.6ZM216.65,259.06l-9.7,14.74,49.88,86.38,18.32-.07-58.5-101.06ZM22.41,344.43l-9.18,15.75h146.01s-9.13-15.81-9.13-15.81l-127.69.06ZM150.11,344.37l9.13,15.82,76.04-131.67v-31.73l-85.17,147.57ZM235.28,196.8v31.72s44.26,76.23,44.26,76.23l18.32-.08-62.58-107.86ZM194.28,49.52L44.82,305.64l19.48.02L203.51,66.18l-9.24-16.66Z" style="fill: url(#linear-gradient); stroke-width: 0px;"/>
  <g>
    <circle cx="17.33" cy="352.21" r="17.33" style="fill: #ff8c00; stroke-width: 0px;"/>
    <circle cx="287.19" cy="303.06" r="17.33" style="fill: #ffa13b; stroke-width: 0px;"/>
    <circle cx="202.93" cy="49.52" r="17.33" style="fill: #f9b06e; stroke-width: 0px;"/>
  </g>
</svg>