<svg width="137" height="137" viewBox="0 0 137 137" fill="none" xmlns="http://www.w3.org/2000/svg">
<rect width="137" height="137" fill="#EE7C21"/>
<path d="M67.2724 20.3703C67.4451 18.8014 69.5548 18.8014 69.7274 20.3703L71.1746 33.5325C73.0434 50.5283 85.4607 63.9283 101.21 65.9449L113.407 67.5066C114.861 67.693 114.861 69.9696 113.407 70.156L101.21 71.7177C85.4607 73.7343 73.0434 87.1343 71.1746 104.13L69.7274 117.292C69.5548 118.861 67.4451 118.861 67.2724 117.292L65.8252 104.13C63.9564 87.1343 51.5392 73.7343 35.7897 71.7177L23.5927 70.156C22.1388 69.9696 22.1388 67.693 23.5927 67.5066L35.7897 65.9449C51.5392 63.9283 63.9564 50.5283 65.8252 33.5325L67.2724 20.3703Z" fill="#F6F6F6"/>
</svg>
