<svg width="137" height="137" viewBox="0 0 137 137" fill="none" xmlns="http://www.w3.org/2000/svg">
<rect width="137" height="137" fill="#217FEE"/>
<path d="M67.2723 20.3701C67.4449 18.8011 69.5546 18.8011 69.7273 20.3701L71.1745 33.5322C73.0433 50.5281 85.4605 63.928 101.21 65.9446L113.407 67.5064C114.861 67.6927 114.861 69.9694 113.407 70.1557L101.21 71.7174C85.4605 73.7341 73.0433 87.134 71.1745 104.13L69.7273 117.292C69.5546 118.861 67.4449 118.861 67.2723 117.292L65.8251 104.13C63.9563 87.134 51.539 73.7341 35.7895 71.7174L23.5926 70.1557C22.1387 69.9694 22.1387 67.6927 23.5926 67.5064L35.7895 65.9446C51.539 63.928 63.9563 50.5281 65.8251 33.5322L67.2723 20.3701Z" fill="#F6F6F6"/>
</svg>
