<svg width="137" height="137" viewBox="0 0 137 137" fill="none" xmlns="http://www.w3.org/2000/svg">
<rect width="137" height="137" fill="#48277C"/>
<path d="M67.2725 20.3698C67.4452 18.8009 69.5549 18.8009 69.7276 20.3698L71.1748 33.532C73.0435 50.5278 85.4608 63.9278 101.21 65.9444L113.407 67.5061C114.861 67.6925 114.861 69.9691 113.407 70.1555L101.21 71.7172C85.4608 73.7338 73.0435 87.1338 71.1748 104.129L69.7276 117.292C69.5549 118.861 67.4452 118.861 67.2725 117.292L65.8253 104.129C63.9566 87.1338 51.5393 73.7338 35.7898 71.7172L23.5929 70.1555C22.139 69.9691 22.139 67.6925 23.5929 67.5061L35.7898 65.9444C51.5393 63.9278 63.9566 50.5278 65.8253 33.532L67.2725 20.3698Z" fill="#F6F6F6"/>
</svg>
