<svg width="64" height="48" viewBox="0 0 64 48" fill="none" xmlns="http://www.w3.org/2000/svg">
<path d="M47.3 25.3234L47.2839 25.366V25.4116L47.2836 46.0714H37.512C35.0751 46.0118 32.7147 46.0306 30.2127 46.0504C28.9079 46.0607 27.5645 46.0714 26.1518 46.0714C26.1509 46.0714 26.1501 46.0714 26.1492 46.0714L26.0578 46.0695L25.8026 46.0642V46.0714H15.9199V46.0707L15.6797 46.0613C8.64758 45.785 3.03125 39.9997 3.03125 32.9045C3.03125 26.0474 8.27693 20.4141 14.977 19.7943L15.204 19.7733V19.5453V19.4876C15.204 10.3389 22.6256 2.92188 31.7808 2.92188C40.936 2.92188 48.3576 10.3389 48.3576 19.4876C48.3576 21.5421 47.9836 23.509 47.3 25.3234Z" fill="#27307C" stroke="white" stroke-width="0.5"/>
<path d="M46.9965 18.9834H46.9949L46.7731 18.9854H46.7715C39.3511 19.1057 33.3721 25.1546 33.3721 32.5998V46.2154C35.1813 46.2191 35.7689 46.1726 37.5038 46.215H37.509L46.9965 46.2154H46.9981L47.2203 46.2134H47.2219C54.6423 46.0932 60.621 40.0446 60.621 32.5994C60.621 25.079 54.5207 18.9834 46.9965 18.9834Z" fill="url(#paint0_linear_269_11569)" stroke="white" stroke-width="0.5"/>
<path d="M35.4666 34.8752V46.7496H27.9999V34.8735L24.5721 37.071C22.9719 38.0969 20.856 37.754 19.6617 36.2753C18.3736 34.6806 18.6154 32.3449 20.2028 31.0479L29.5068 23.4457C30.9831 22.2394 33.1055 22.2426 34.5781 23.4534L43.8011 31.0365C45.3923 32.3448 45.6431 34.6864 44.365 36.302C43.1977 37.7775 41.1231 38.1701 39.4974 37.2232L35.4666 34.8752Z" fill="white"/>
<defs>
<linearGradient id="paint0_linear_269_11569" x1="58.461" y1="25.0347" x2="36.8843" y2="46.5728" gradientUnits="userSpaceOnUse">
<stop stop-color="#273F7C"/>
<stop offset="1" stop-color="#27447C"/>
</linearGradient>
</defs>
</svg>
