<svg width="50" height="50" viewBox="0 0 50 50" fill="none" xmlns="http://www.w3.org/2000/svg">
<rect width="50" height="50" rx="13.5135" fill="#EE9C21"/>
<path d="M20.2082 26.0417V30.2083M28.5415 23.9583V30.2083M24.3748 19.7917V30.2083M19.9998 34.375H28.7498C30.5 34.375 31.3751 34.375 32.0435 34.0344C32.6315 33.7348 33.1096 33.2567 33.4092 32.6687C33.7498 32.0002 33.7498 31.1252 33.7498 29.375V20.625C33.7498 18.8748 33.7498 17.9998 33.4092 17.3313C33.1096 16.7433 32.6315 16.2652 32.0435 15.9656C31.3751 15.625 30.5 15.625 28.7498 15.625H19.9998C18.2497 15.625 17.3746 15.625 16.7061 15.9656C16.1181 16.2652 15.64 16.7433 15.3404 17.3313C14.9998 17.9998 14.9998 18.8748 14.9998 20.625V29.375C14.9998 31.1252 14.9998 32.0002 15.3404 32.6687C15.64 33.2567 16.1181 33.7348 16.7061 34.0344C17.3746 34.375 18.2497 34.375 19.9998 34.375Z" stroke="white" stroke-width="1.5625" stroke-linecap="round" stroke-linejoin="round"/>
</svg>
