<svg width="50" height="50" viewBox="0 0 50 50" fill="none" xmlns="http://www.w3.org/2000/svg">
<rect y="50" width="50" height="50" rx="10" transform="rotate(-90 0 50)" fill="#21C9EE"/>
<path d="M33.3331 19.7917L33.3331 20C33.3331 21.7502 33.3331 22.6252 32.9925 23.2937C32.6929 23.8817 32.2148 24.3598 31.6268 24.6594C30.9583 25 30.0832 25 28.3331 25L21.6664 25C19.9162 25 19.0412 25 18.3727 24.6594C17.7847 24.3598 17.3066 23.8817 17.007 23.2937C16.6664 22.6252 16.6664 21.7502 16.6664 20L16.6664 19.7917M33.3331 19.7917C34.4837 19.7917 35.4164 18.8589 35.4164 17.7083C35.4164 16.5577 34.4837 15.625 33.3331 15.625C32.1825 15.625 31.2497 16.5577 31.2497 17.7083C31.2497 18.8589 32.1825 19.7917 33.3331 19.7917ZM16.6664 19.7917C17.817 19.7917 18.7497 18.8589 18.7497 17.7083C18.7497 16.5577 17.817 15.625 16.6664 15.625C15.5158 15.625 14.5831 16.5577 14.5831 17.7083C14.5831 18.8589 15.5158 19.7917 16.6664 19.7917ZM24.9997 30.2083L24.9997 19.7917M24.9997 30.2083C26.1503 30.2083 27.0831 31.1411 27.0831 32.2917C27.0831 33.4423 26.1503 34.375 24.9997 34.375C23.8491 34.375 22.9164 33.4423 22.9164 32.2917C22.9164 31.1411 23.8491 30.2083 24.9997 30.2083ZM24.9997 19.7917C26.1503 19.7917 27.0831 18.8589 27.0831 17.7083C27.0831 16.5577 26.1503 15.625 24.9997 15.625C23.8491 15.625 22.9164 16.5577 22.9164 17.7083C22.9164 18.8589 23.8491 19.7917 24.9997 19.7917Z" stroke="white" stroke-width="2.08333" stroke-linecap="round" stroke-linejoin="round"/>
</svg>
