<svg width="50" height="50" viewBox="0 0 50 50" fill="none" xmlns="http://www.w3.org/2000/svg">
<rect width="50" height="50" rx="13.5135" fill="#217FEE"/>
<path d="M34.375 31.2499L33.3332 32.3895C32.7807 32.9938 32.0314 33.3333 31.2501 33.3333C30.4689 33.3333 29.7196 32.9938 29.1671 32.3895C28.6138 31.7865 27.8646 31.4479 27.0835 31.4479C26.3025 31.4479 25.5533 31.7865 25 32.3895M15.625 33.3332L17.3693 33.3332C17.8789 33.3332 18.1337 33.3332 18.3734 33.2757C18.586 33.2246 18.7892 33.1405 18.9756 33.0262C19.1859 32.8974 19.366 32.7172 19.7263 32.3569L32.8125 19.2707C33.6755 18.4078 33.6755 17.0087 32.8125 16.1457C31.9496 15.2828 30.5505 15.2828 29.6875 16.1457L16.6013 29.2319C16.241 29.5923 16.0608 29.7724 15.932 29.9827C15.8178 30.1691 15.7336 30.3723 15.6826 30.5848C15.625 30.8246 15.625 31.0794 15.625 31.589L15.625 33.3332Z" stroke="white" stroke-width="2.08333" stroke-linecap="round" stroke-linejoin="round"/>
</svg>
