<svg width="109" height="99" viewBox="0 0 109 99" fill="none" xmlns="http://www.w3.org/2000/svg">
<mask id="path-1-inside-1_269_2779" fill="white">
<path fill-rule="evenodd" clip-rule="evenodd" d="M17.571 0C7.8668 0 0 7.86679 0 17.571V38.4067V40.4777V70.3297C0 80.1704 0 85.0907 1.91512 88.8493C3.59971 92.1555 6.28773 94.8436 9.59393 96.5282C13.3526 98.4433 18.2729 98.4433 28.1136 98.4433H80.8864C90.7271 98.4433 95.6474 98.4433 99.4061 96.5282C102.712 94.8436 105.4 92.1555 107.085 88.8493C109 85.0907 109 80.1704 109 70.3297V38.4067C109 28.5661 109 23.6457 107.085 19.8871C105.4 16.5809 102.712 13.8929 99.4061 12.2083C95.6474 10.2932 90.7271 10.2932 80.8864 10.2932H69.0932C60.0239 10.2932 51.3111 0 42.2419 0H17.571Z"/>
</mask>
<path fill-rule="evenodd" clip-rule="evenodd" d="M17.571 0C7.8668 0 0 7.86679 0 17.571V38.4067V40.4777V70.3297C0 80.1704 0 85.0907 1.91512 88.8493C3.59971 92.1555 6.28773 94.8436 9.59393 96.5282C13.3526 98.4433 18.2729 98.4433 28.1136 98.4433H80.8864C90.7271 98.4433 95.6474 98.4433 99.4061 96.5282C102.712 94.8436 105.4 92.1555 107.085 88.8493C109 85.0907 109 80.1704 109 70.3297V38.4067C109 28.5661 109 23.6457 107.085 19.8871C105.4 16.5809 102.712 13.8929 99.4061 12.2083C95.6474 10.2932 90.7271 10.2932 80.8864 10.2932H69.0932C60.0239 10.2932 51.3111 0 42.2419 0H17.571Z" fill="#D9D9D9"/>
<path fill-rule="evenodd" clip-rule="evenodd" d="M17.571 0C7.8668 0 0 7.86679 0 17.571V38.4067V40.4777V70.3297C0 80.1704 0 85.0907 1.91512 88.8493C3.59971 92.1555 6.28773 94.8436 9.59393 96.5282C13.3526 98.4433 18.2729 98.4433 28.1136 98.4433H80.8864C90.7271 98.4433 95.6474 98.4433 99.4061 96.5282C102.712 94.8436 105.4 92.1555 107.085 88.8493C109 85.0907 109 80.1704 109 70.3297V38.4067C109 28.5661 109 23.6457 107.085 19.8871C105.4 16.5809 102.712 13.8929 99.4061 12.2083C95.6474 10.2932 90.7271 10.2932 80.8864 10.2932H69.0932C60.0239 10.2932 51.3111 0 42.2419 0H17.571Z" fill="url(#paint0_radial_269_2779)"/>
<path d="M1.91512 88.8493L2.54136 88.5303H2.54136L1.91512 88.8493ZM9.59393 96.5282L9.27485 97.1544H9.27485L9.59393 96.5282ZM99.4061 96.5282L99.7252 97.1544L99.4061 96.5282ZM107.085 88.8493L106.459 88.5303L107.085 88.8493ZM107.085 19.8871L107.711 19.568L107.085 19.8871ZM99.4061 12.2083L99.7252 11.582L99.4061 12.2083ZM0.70284 17.571C0.70284 8.25496 8.25497 0.70284 17.571 0.70284V-0.70284C7.47863 -0.70284 -0.70284 7.47862 -0.70284 17.571H0.70284ZM0.70284 38.4067V17.571H-0.70284V38.4067H0.70284ZM0.70284 40.4777V38.4067H-0.70284V40.4777H0.70284ZM0.70284 70.3297V40.4777H-0.70284V70.3297H0.70284ZM2.54136 88.5303C1.6427 86.7665 1.17574 84.6996 0.939896 81.8131C0.703386 78.9183 0.70284 75.2616 0.70284 70.3297H-0.70284C-0.70284 75.2384 -0.703386 78.9623 -0.461115 81.9275C-0.218173 84.901 0.272429 87.1735 1.28889 89.1684L2.54136 88.5303ZM9.91301 95.9019C6.73906 94.2847 4.15857 91.7042 2.54136 88.5303L1.28889 89.1684C3.04086 92.6069 5.8364 95.4024 9.27485 97.1544L9.91301 95.9019ZM28.1136 97.7404C23.1817 97.7404 19.525 97.7399 16.6302 97.5034C13.7437 97.2675 11.6767 96.8006 9.91301 95.9019L9.27485 97.1544C11.2698 98.1709 13.5423 98.6615 16.5158 98.9044C19.481 99.1467 23.2048 99.1461 28.1136 99.1461V97.7404ZM80.8864 97.7404H28.1136V99.1461H80.8864V97.7404ZM99.087 95.9019C97.3233 96.8006 95.2563 97.2675 92.3698 97.5034C89.475 97.7399 85.8183 97.7404 80.8864 97.7404V99.1461C85.7952 99.1461 89.519 99.1467 92.4842 98.9044C95.4577 98.6615 97.7302 98.1709 99.7252 97.1544L99.087 95.9019ZM106.459 88.5303C104.841 91.7042 102.261 94.2847 99.087 95.9019L99.7252 97.1544C103.164 95.4024 105.959 92.6069 107.711 89.1684L106.459 88.5303ZM108.297 70.3297C108.297 75.2616 108.297 78.9183 108.06 81.8131C107.824 84.6996 107.357 86.7665 106.459 88.5303L107.711 89.1684C108.728 87.1735 109.218 84.901 109.461 81.9275C109.703 78.9623 109.703 75.2384 109.703 70.3297H108.297ZM108.297 38.4067V70.3297H109.703V38.4067H108.297ZM106.459 20.2062C107.357 21.9699 107.824 24.0369 108.06 26.9234C108.297 29.8181 108.297 33.4748 108.297 38.4067H109.703C109.703 33.498 109.703 29.7742 109.461 26.8089C109.218 23.8355 108.728 21.5629 107.711 19.568L106.459 20.2062ZM99.087 12.8345C102.261 14.4517 104.841 17.0322 106.459 20.2062L107.711 19.568C105.959 16.1296 103.164 13.334 99.7252 11.582L99.087 12.8345ZM80.8864 10.996C85.8184 10.996 89.475 10.9965 92.3698 11.2331C95.2563 11.4689 97.3233 11.9359 99.087 12.8345L99.7252 11.582C97.7302 10.5656 95.4577 10.075 92.4842 9.83204C89.519 9.58977 85.7952 9.59032 80.8864 9.59032V10.996ZM69.0932 10.996H80.8864V9.59032H69.0932V10.996ZM17.571 0.70284H42.2419V-0.70284H17.571V0.70284ZM69.0932 9.59032C64.7847 9.59032 60.5128 7.13918 56.0196 4.5383C51.6218 1.9926 47.0026 -0.70284 42.2419 -0.70284V0.70284C46.5504 0.70284 50.8223 3.15398 55.3154 5.75486C59.7133 8.30056 64.3324 10.996 69.0932 10.996V9.59032Z" fill="url(#paint1_linear_269_2779)" mask="url(#path-1-inside-1_269_2779)"/>
<defs>
<radialGradient id="paint0_radial_269_2779" cx="0" cy="0" r="1" gradientUnits="userSpaceOnUse" gradientTransform="translate(109 98.5523) rotate(-135) scale(248.206 329.483)">
<stop stop-color="#EE7C21"/>
<stop offset="1" stop-color="#EDB31F"/>
</radialGradient>
<linearGradient id="paint1_linear_269_2779" x1="0" y1="0" x2="121.807" y2="84.1123" gradientUnits="userSpaceOnUse">
<stop offset="0.228092" stop-color="#FFD178"/>
<stop offset="0.802791" stop-color="#E48207"/>
</linearGradient>
</defs>
</svg>
