<svg width="50" height="50" viewBox="0 0 50 50" fill="none" xmlns="http://www.w3.org/2000/svg">
<rect width="50" height="50" rx="10" fill="#48277C"/>
<path d="M33.4167 22.7707L33.4167 19.404C33.4167 17.6363 33.4167 16.7525 33.0727 16.0773C32.7701 15.4835 32.2873 15.0006 31.6934 14.698C31.0182 14.354 30.1344 14.354 28.3667 14.354L21.6334 14.354C19.8657 14.354 18.9819 14.354 18.3067 14.698C17.7128 15.0006 17.23 15.4835 16.9274 16.0773C16.5834 16.7525 16.5834 17.6363 16.5834 19.404L16.5834 30.3457C16.5834 32.1133 16.5834 32.9972 16.9274 33.6723C17.23 34.2662 17.7128 34.7491 18.3067 35.0517C18.9819 35.3957 19.8657 35.3957 21.6334 35.3957L23.4219 35.3957M26.0521 23.8228L20.7917 23.8228M23.948 28.0311L20.7917 28.0311M29.2084 19.6144L20.7917 19.6144M32.6276 30.1353L32.6276 28.2941C32.6276 27.2773 31.8033 26.453 30.7865 26.453C29.7697 26.453 28.9454 27.2773 28.9454 28.2941L28.9454 30.1353M28.7875 34.3436L32.7855 34.3436C33.3747 34.3436 33.6693 34.3436 33.8943 34.2289C34.0923 34.1281 34.2533 33.9671 34.3541 33.7691C34.4688 33.5441 34.4688 33.2495 34.4688 32.6603L34.4688 31.8186C34.4688 31.2294 34.4688 30.9348 34.3541 30.7097C34.2533 30.5117 34.0923 30.3508 33.8943 30.2499C33.6693 30.1353 33.3747 30.1353 32.7855 30.1353L28.7875 30.1353C28.1983 30.1353 27.9037 30.1353 27.6787 30.2499C27.4807 30.3508 27.3197 30.5117 27.2189 30.7097C27.1042 30.9348 27.1042 31.2294 27.1042 31.8186L27.1042 32.6603C27.1042 33.2495 27.1042 33.5441 27.2189 33.7691C27.3197 33.9671 27.4807 34.1281 27.6787 34.2289C27.9037 34.3436 28.1983 34.3436 28.7875 34.3436Z" stroke="white" stroke-width="2.10417" stroke-linecap="round" stroke-linejoin="round"/>
</svg>
