<svg width="84" height="24" viewBox="0 0 84 24" fill="none" xmlns="http://www.w3.org/2000/svg">
<path d="M8.00016 7.33331V16.6666M3.3335 12H12.6668" stroke="#EE7C21" stroke-width="1.33333" stroke-linecap="round" stroke-linejoin="round"/>
<g clip-path="url(#clip0_269_10610)">
<g clip-path="url(#clip1_269_10610)">
<path d="M30.0561 10.0348C29.96 9.73319 29.8307 9.46307 29.6683 9.22443C29.5092 8.98248 29.3187 8.77699 29.0966 8.60795C28.8745 8.43561 28.621 8.30469 28.3359 8.2152C28.0542 8.12571 27.7443 8.08097 27.4062 8.08097C26.8329 8.08097 26.3158 8.22846 25.8551 8.52344C25.3944 8.81842 25.0298 9.25095 24.7614 9.82102C24.4962 10.3878 24.3636 11.0821 24.3636 11.9041C24.3636 12.7294 24.4979 13.4271 24.7663 13.9972C25.0348 14.5672 25.4027 14.9998 25.87 15.2947C26.3374 15.5897 26.8693 15.7372 27.4659 15.7372C28.0194 15.7372 28.5017 15.6245 28.9126 15.3991C29.3269 15.1738 29.6468 14.8556 29.8722 14.4446C30.1009 14.0303 30.2152 13.5431 30.2152 12.983L30.6129 13.0575H27.6996V11.7898H31.7017V12.9482C31.7017 13.8033 31.5194 14.5457 31.1548 15.1754C30.7936 15.8018 30.2931 16.2857 29.6534 16.6271C29.017 16.9685 28.2879 17.1392 27.4659 17.1392C26.5445 17.1392 25.7358 16.9271 25.0398 16.5028C24.3471 16.0786 23.8068 15.477 23.419 14.6982C23.0313 13.916 22.8374 12.9879 22.8374 11.9141C22.8374 11.102 22.95 10.3729 23.1754 9.72656C23.4008 9.08026 23.7173 8.53172 24.125 8.08097C24.536 7.62689 25.0182 7.28054 25.5717 7.0419C26.1286 6.79995 26.7367 6.67898 27.3963 6.67898C27.9465 6.67898 28.4586 6.76018 28.9325 6.92258C29.4098 7.08499 29.834 7.31534 30.2053 7.61364C30.5798 7.91193 30.8897 8.26657 31.1349 8.67756C31.3802 9.08523 31.5459 9.53764 31.6321 10.0348H30.0561ZM36.8237 17.1541C36.0713 17.1541 35.4234 16.9934 34.8798 16.6719C34.3395 16.3471 33.9219 15.8913 33.627 15.3047C33.3353 14.7147 33.1895 14.0237 33.1895 13.2315C33.1895 12.4493 33.3353 11.7599 33.627 11.1634C33.9219 10.5668 34.3329 10.1011 34.8599 9.76633C35.3902 9.43158 36.01 9.2642 36.7193 9.2642C37.1502 9.2642 37.5678 9.33546 37.9721 9.47798C38.3765 9.6205 38.7394 9.84422 39.0609 10.1491C39.3824 10.4541 39.6359 10.8501 39.8216 11.3374C40.0072 11.8213 40.1 12.4096 40.1 13.1023V13.6293H34.0297V12.5156H38.6433C38.6433 12.1245 38.5637 11.7782 38.4047 11.4766C38.2456 11.1716 38.0218 10.9313 37.7335 10.7557C37.4484 10.58 37.1137 10.4922 36.7292 10.4922C36.3116 10.4922 35.947 10.5949 35.6355 10.8004C35.3272 11.0026 35.0886 11.2678 34.9196 11.5959C34.7538 11.9207 34.671 12.2737 34.671 12.6548V13.5249C34.671 14.0353 34.7605 14.4695 34.9395 14.8274C35.1217 15.1854 35.3753 15.4588 35.7001 15.6477C36.0249 15.8333 36.4044 15.9261 36.8386 15.9261C37.1203 15.9261 37.3772 15.8864 37.6092 15.8068C37.8412 15.724 38.0417 15.6013 38.2108 15.4389C38.3798 15.2765 38.5091 15.076 38.5985 14.8374L40.0055 15.0909C39.8928 15.5052 39.6906 15.8681 39.399 16.1797C39.1106 16.4879 38.7477 16.7282 38.3102 16.9006C37.876 17.0696 37.3805 17.1541 36.8237 17.1541ZM43.2358 12.4659V17H41.7493V9.36364H43.1761V10.6065H43.2706C43.4463 10.2022 43.7214 9.87737 44.0959 9.6321C44.4737 9.38684 44.9493 9.2642 45.5227 9.2642C46.0431 9.2642 46.4988 9.37358 46.8899 9.59233C47.281 9.80777 47.5843 10.1293 47.7997 10.5568C48.0152 10.9844 48.1229 11.513 48.1229 12.1428V17H46.6364V12.3217C46.6364 11.7682 46.4922 11.3357 46.2038 11.0241C45.9155 10.7093 45.5194 10.5518 45.0156 10.5518C44.6709 10.5518 44.3643 10.6264 44.0959 10.7756C43.8307 10.9247 43.6203 11.1435 43.4645 11.4318C43.312 11.7169 43.2358 12.0616 43.2358 12.4659ZM53.4077 17.1541C52.6553 17.1541 52.0073 16.9934 51.4638 16.6719C50.9235 16.3471 50.5059 15.8913 50.2109 15.3047C49.9193 14.7147 49.7734 14.0237 49.7734 13.2315C49.7734 12.4493 49.9193 11.7599 50.2109 11.1634C50.5059 10.5668 50.9169 10.1011 51.4439 9.76633C51.9742 9.43158 52.594 9.2642 53.3033 9.2642C53.7341 9.2642 54.1518 9.33546 54.5561 9.47798C54.9605 9.6205 55.3234 9.84422 55.6449 10.1491C55.9664 10.4541 56.2199 10.8501 56.4055 11.3374C56.5911 11.8213 56.6839 12.4096 56.6839 13.1023V13.6293H50.6136V12.5156H55.2273C55.2273 12.1245 55.1477 11.7782 54.9886 11.4766C54.8295 11.1716 54.6058 10.9313 54.3175 10.7557C54.0324 10.58 53.6977 10.4922 53.3132 10.4922C52.8956 10.4922 52.531 10.5949 52.2195 10.8004C51.9112 11.0026 51.6726 11.2678 51.5036 11.5959C51.3378 11.9207 51.255 12.2737 51.255 12.6548V13.5249C51.255 14.0353 51.3445 14.4695 51.5234 14.8274C51.7057 15.1854 51.9593 15.4588 52.2841 15.6477C52.6089 15.8333 52.9884 15.9261 53.4226 15.9261C53.7043 15.9261 53.9612 15.8864 54.1932 15.8068C54.4252 15.724 54.6257 15.6013 54.7947 15.4389C54.9638 15.2765 55.093 15.076 55.1825 14.8374L56.5895 15.0909C56.4768 15.5052 56.2746 15.8681 55.983 16.1797C55.6946 16.4879 55.3317 16.7282 54.8942 16.9006C54.46 17.0696 53.9645 17.1541 53.4077 17.1541ZM58.3333 17V9.36364H59.7701V10.5767H59.8496C59.9888 10.1657 60.2341 9.84257 60.5854 9.60724C60.94 9.36861 61.3411 9.24929 61.7885 9.24929C61.8813 9.24929 61.9907 9.2526 62.1167 9.25923C62.2459 9.26586 62.347 9.27415 62.4199 9.28409V10.706C62.3603 10.6894 62.2542 10.6712 62.1017 10.6513C61.9493 10.6281 61.7968 10.6165 61.6444 10.6165C61.293 10.6165 60.9798 10.6911 60.7047 10.8402C60.4329 10.986 60.2175 11.1899 60.0584 11.4517C59.8993 11.7102 59.8198 12.0052 59.8198 12.3366V17H58.3333ZM65.8603 17.169C65.3764 17.169 64.9389 17.0795 64.5478 16.9006C64.1567 16.7183 63.8468 16.4548 63.6181 16.1101C63.3927 15.7654 63.28 15.3428 63.28 14.8423C63.28 14.4115 63.3629 14.0568 63.5286 13.7784C63.6943 13.5 63.918 13.2796 64.1998 13.1172C64.4815 12.9548 64.7963 12.8321 65.1444 12.7493C65.4924 12.6664 65.847 12.6035 66.2083 12.5604C66.6657 12.5073 67.0369 12.4643 67.3219 12.4311C67.6069 12.3946 67.8141 12.3366 67.9434 12.2571C68.0726 12.1776 68.1373 12.0483 68.1373 11.8693V11.8345C68.1373 11.4003 68.0146 11.0639 67.7694 10.8253C67.5274 10.5866 67.1661 10.4673 66.6855 10.4673C66.1851 10.4673 65.7907 10.5784 65.5023 10.8004C65.2173 11.0192 65.0201 11.2628 64.9107 11.5312L63.5137 11.2131C63.6794 10.7491 63.9213 10.3745 64.2395 10.0895C64.561 9.80114 64.9306 9.59233 65.3482 9.46307C65.7658 9.33049 66.205 9.2642 66.6657 9.2642C66.9706 9.2642 67.2937 9.30066 67.6351 9.37358C67.9798 9.44318 68.3013 9.57244 68.5996 9.76136C68.9012 9.95028 69.1481 10.2204 69.3404 10.5717C69.5326 10.9197 69.6287 11.3722 69.6287 11.929V17H68.177V15.956H68.1174C68.0212 16.1482 67.8771 16.3371 67.6848 16.5227C67.4926 16.7083 67.2457 16.8625 66.9441 16.9851C66.6425 17.1077 66.2812 17.169 65.8603 17.169ZM66.1834 15.9759C66.5944 15.9759 66.9457 15.8946 67.2374 15.7322C67.5324 15.5698 67.7561 15.3577 67.9086 15.0959C68.0643 14.8307 68.1422 14.5473 68.1422 14.2457V13.2614C68.0892 13.3144 67.9864 13.3641 67.834 13.4105C67.6848 13.4536 67.5141 13.4917 67.3219 13.5249C67.1297 13.5547 66.9424 13.5829 66.7601 13.6094C66.5778 13.6326 66.4254 13.6525 66.3027 13.669C66.0144 13.7055 65.7509 13.7668 65.5123 13.853C65.2769 13.9392 65.088 14.0634 64.9455 14.2259C64.8063 14.3849 64.7367 14.5971 64.7367 14.8622C64.7367 15.2301 64.8726 15.5085 65.1444 15.6974C65.4161 15.883 65.7625 15.9759 66.1834 15.9759ZM75.1733 9.36364V10.5568H71.0021V9.36364H75.1733ZM72.1207 7.53409H73.6072V14.7578C73.6072 15.0462 73.6503 15.2633 73.7365 15.4091C73.8227 15.5516 73.9337 15.6494 74.0696 15.7024C74.2088 15.7521 74.3596 15.777 74.522 15.777C74.6413 15.777 74.7457 15.7687 74.8352 15.7521C74.9247 15.7356 74.9943 15.7223 75.044 15.7124L75.3125 16.9403C75.2263 16.9735 75.1037 17.0066 74.9446 17.0398C74.7855 17.0762 74.5866 17.0961 74.348 17.0994C73.9569 17.1061 73.5923 17.0365 73.2543 16.8906C72.9162 16.7448 72.6428 16.5194 72.4339 16.2145C72.2251 15.9096 72.1207 15.5268 72.1207 15.0661V7.53409ZM80.0268 17.1541C79.2744 17.1541 78.6265 16.9934 78.0829 16.6719C77.5427 16.3471 77.1251 15.8913 76.8301 15.3047C76.5384 14.7147 76.3926 14.0237 76.3926 13.2315C76.3926 12.4493 76.5384 11.7599 76.8301 11.1634C77.1251 10.5668 77.536 10.1011 78.063 9.76633C78.5933 9.43158 79.2131 9.2642 79.9224 9.2642C80.3533 9.2642 80.7709 9.33546 81.1752 9.47798C81.5796 9.6205 81.9425 9.84422 82.264 10.1491C82.5855 10.4541 82.8391 10.8501 83.0247 11.3374C83.2103 11.8213 83.3031 12.4096 83.3031 13.1023V13.6293H77.2328V12.5156H81.8464C81.8464 12.1245 81.7669 11.7782 81.6078 11.4766C81.4487 11.1716 81.225 10.9313 80.9366 10.7557C80.6516 10.58 80.3168 10.4922 79.9324 10.4922C79.5147 10.4922 79.1502 10.5949 78.8386 10.8004C78.5304 11.0026 78.2917 11.2678 78.1227 11.5959C77.957 11.9207 77.8741 12.2737 77.8741 12.6548V13.5249C77.8741 14.0353 77.9636 14.4695 78.1426 14.8274C78.3249 15.1854 78.5784 15.4588 78.9032 15.6477C79.228 15.8333 79.6075 15.9261 80.0417 15.9261C80.3234 15.9261 80.5803 15.8864 80.8123 15.8068C81.0443 15.724 81.2449 15.6013 81.4139 15.4389C81.5829 15.2765 81.7122 15.076 81.8017 14.8374L83.2086 15.0909C83.0959 15.5052 82.8938 15.8681 82.6021 16.1797C82.3137 16.4879 81.9508 16.7282 81.5133 16.9006C81.0791 17.0696 80.5836 17.1541 80.0268 17.1541Z" fill="#EE7C21"/>
</g>
</g>
<defs>
<clipPath id="clip0_269_10610">
<rect width="62" height="24" fill="white" transform="translate(22)"/>
</clipPath>
<clipPath id="clip1_269_10610">
<rect width="62" height="24" fill="white" transform="translate(22)"/>
</clipPath>
</defs>
</svg>
