<svg width="53" height="24" viewBox="0 0 53 24" fill="none" xmlns="http://www.w3.org/2000/svg">
<path d="M8.00016 7.33334V16.6667M3.3335 12H12.6668" stroke="#EE7C21" stroke-width="1.33333" stroke-linecap="round" stroke-linejoin="round"/>
<g clip-path="url(#clip0_269_10493)">
<g clip-path="url(#clip1_269_10493)">
<path d="M31.7292 6.81818V17H30.3173L25.1419 9.53267H25.0474V17H23.5112V6.81818H24.9331L30.1135 14.2955H30.2079V6.81818H31.7292ZM37.142 17.1541C36.3897 17.1541 35.7417 16.9934 35.1982 16.6719C34.6579 16.3471 34.2403 15.8913 33.9453 15.3047C33.6536 14.7147 33.5078 14.0237 33.5078 13.2315C33.5078 12.4493 33.6536 11.7599 33.9453 11.1634C34.2403 10.5668 34.6513 10.1011 35.1783 9.76633C35.7086 9.43158 36.3284 9.2642 37.0376 9.2642C37.4685 9.2642 37.8861 9.33546 38.2905 9.47798C38.6948 9.6205 39.0578 9.84422 39.3793 10.1491C39.7008 10.4541 39.9543 10.8501 40.1399 11.3374C40.3255 11.8213 40.4183 12.4096 40.4183 13.1023V13.6293H34.348V12.5156H38.9616C38.9616 12.1245 38.8821 11.7782 38.723 11.4766C38.5639 11.1716 38.3402 10.9313 38.0518 10.7557C37.7668 10.58 37.4321 10.4922 37.0476 10.4922C36.63 10.4922 36.2654 10.5949 35.9538 10.8004C35.6456 11.0026 35.407 11.2678 35.2379 11.5959C35.0722 11.9207 34.9893 12.2737 34.9893 12.6548V13.5249C34.9893 14.0353 35.0788 14.4695 35.2578 14.8274C35.4401 15.1854 35.6937 15.4588 36.0185 15.6477C36.3433 15.8333 36.7228 15.9261 37.157 15.9261C37.4387 15.9261 37.6955 15.8864 37.9276 15.8068C38.1596 15.724 38.3601 15.6013 38.5291 15.4389C38.6982 15.2765 38.8274 15.076 38.9169 14.8374L40.3239 15.0909C40.2112 15.5052 40.009 15.8681 39.7173 16.1797C39.429 16.4879 39.0661 16.7282 38.6286 16.9006C38.1944 17.0696 37.6989 17.1541 37.142 17.1541ZM43.7095 17L41.4624 9.36364H42.9986L44.495 14.9716H44.5696L46.071 9.36364H47.6072L49.0987 14.9467H49.1733L50.6598 9.36364H52.196L49.9538 17H48.4375L46.8864 11.4865H46.772L45.2209 17H43.7095Z" fill="#EE7C21"/>
</g>
</g>
<defs>
<clipPath id="clip0_269_10493">
<rect width="31" height="24" fill="white" transform="translate(22)"/>
</clipPath>
<clipPath id="clip1_269_10493">
<rect width="31" height="24" fill="white" transform="translate(22)"/>
</clipPath>
</defs>
</svg>
