<svg width="32" height="27" viewBox="0 0 32 27" fill="none" xmlns="http://www.w3.org/2000/svg">
<path fill-rule="evenodd" clip-rule="evenodd" d="M31.5 4.76019C26.8569 6.96584 24.5354 9.55744 24.5354 12.5351C26.5144 12.7556 28.1509 13.5368 29.4449 14.8786C30.7388 16.2203 31.3858 17.7735 31.3858 19.538C31.3858 21.4128 30.7579 22.9935 29.502 24.2801C28.246 25.5667 26.6666 26.21 24.7637 26.21C22.6325 26.21 20.7867 25.3737 19.2263 23.7011C17.6659 22.0285 16.8857 19.9975 16.8857 17.608C16.8857 10.4397 21.034 4.83373 29.3307 0.790039L31.5 4.76019ZM15.1143 4.76019C10.4331 6.96584 8.09258 9.55744 8.09258 12.5351C10.1097 12.7556 11.7652 13.5368 13.0592 14.8786C14.3531 16.2203 15.0001 17.7735 15.0001 19.538C15.0001 21.4128 14.3626 22.9935 13.0877 24.2801C11.8127 25.5667 10.2238 26.21 8.32093 26.21C6.18967 26.21 4.35338 25.3737 2.81203 23.7011C1.27067 22.0285 0.5 19.9975 0.5 17.608C0.5 10.4397 4.62926 4.83373 12.8879 0.790039L15.1143 4.76019Z" fill="#1DB5BE"/>
</svg>
