<svg width="12" height="16" viewBox="0 0 12 16" fill="none" xmlns="http://www.w3.org/2000/svg">
<path d="M3.99984 7.66666L5.33317 9L8.33317 6M11.3332 8C11.3332 11.2723 7.76386 13.6523 6.46516 14.4099C6.31757 14.496 6.24377 14.5391 6.13962 14.5614C6.0588 14.5787 5.94088 14.5787 5.86005 14.5614C5.7559 14.5391 5.6821 14.496 5.53451 14.4099C4.23581 13.6523 0.666504 11.2723 0.666504 8V4.81173C0.666504 4.27872 0.666504 4.01222 0.753677 3.78313C0.830687 3.58076 0.955826 3.40018 1.11828 3.25702C1.30217 3.09495 1.5517 3.00138 2.05077 2.81423L5.62531 1.47378C5.7639 1.4218 5.8332 1.39582 5.90449 1.38552C5.96773 1.37638 6.03195 1.37638 6.09518 1.38552C6.16647 1.39582 6.23577 1.4218 6.37437 1.47378L9.9489 2.81423C10.448 3.00138 10.6975 3.09495 10.8814 3.25702C11.0438 3.40018 11.169 3.58076 11.246 3.78313C11.3332 4.01222 11.3332 4.27872 11.3332 4.81173V8Z" stroke="black" stroke-width="1.33333" stroke-linecap="round" stroke-linejoin="round"/>
</svg>
