<svg width="98" height="24" viewBox="0 0 98 24" fill="none" xmlns="http://www.w3.org/2000/svg">
<g clip-path="url(#clip0_269_10554)">
<g clip-path="url(#clip1_269_10554)">
<path d="M2.33372 6.81818L5.16752 15.1108H5.28187L8.11568 6.81818H9.77619L6.11213 17H4.33727L0.673207 6.81818H2.33372ZM11.1272 17V9.36364H12.6137V17H11.1272ZM11.8779 8.18537C11.6194 8.18537 11.3973 8.09919 11.2117 7.92685C11.0294 7.75118 10.9383 7.54238 10.9383 7.30043C10.9383 7.05516 11.0294 6.84635 11.2117 6.67401C11.3973 6.49834 11.6194 6.41051 11.8779 6.41051C12.1365 6.41051 12.3569 6.49834 12.5392 6.67401C12.7248 6.84635 12.8176 7.05516 12.8176 7.30043C12.8176 7.54238 12.7248 7.75118 12.5392 7.92685C12.3569 8.09919 12.1365 8.18537 11.8779 8.18537ZM17.9047 17.1541C17.1524 17.1541 16.5044 16.9934 15.9608 16.6719C15.4206 16.3471 15.003 15.8913 14.708 15.3047C14.4163 14.7147 14.2705 14.0237 14.2705 13.2315C14.2705 12.4493 14.4163 11.7599 14.708 11.1634C15.003 10.5668 15.414 10.1011 15.941 9.76633C16.4713 9.43158 17.0911 9.2642 17.8003 9.2642C18.2312 9.2642 18.6488 9.33546 19.0532 9.47798C19.4575 9.6205 19.8205 9.84422 20.142 10.1491C20.4635 10.4541 20.717 10.8501 20.9026 11.3374C21.0882 11.8213 21.181 12.4096 21.181 13.1023V13.6293H15.1107V12.5156H19.7243C19.7243 12.1245 19.6448 11.7782 19.4857 11.4766C19.3266 11.1716 19.1029 10.9313 18.8145 10.7557C18.5295 10.58 18.1948 10.4922 17.8103 10.4922C17.3927 10.4922 17.0281 10.5949 16.7165 10.8004C16.4083 11.0026 16.1697 11.2678 16.0006 11.5959C15.8349 11.9207 15.752 12.2737 15.752 12.6548V13.5249C15.752 14.0353 15.8415 14.4695 16.0205 14.8274C16.2028 15.1854 16.4564 15.4588 16.7812 15.6477C17.106 15.8333 17.4855 15.9261 17.9197 15.9261C18.2014 15.9261 18.4582 15.8864 18.6903 15.8068C18.9223 15.724 19.1228 15.6013 19.2918 15.4389C19.4608 15.2765 19.5901 15.076 19.6796 14.8374L21.0866 15.0909C20.9739 15.5052 20.7717 15.8681 20.48 16.1797C20.1917 16.4879 19.8287 16.7282 19.3912 16.9006C18.9571 17.0696 18.4616 17.1541 17.9047 17.1541ZM24.4722 17L22.2251 9.36364H23.7613L25.2577 14.9716H25.3323L26.8337 9.36364H28.3699L29.8614 14.9467H29.936L31.4225 9.36364H32.9587L30.7165 17H29.2002L27.6491 11.4865H27.5347L25.9836 17H24.4722ZM47.0383 11.9091C47.0383 12.9962 46.8394 13.9309 46.4417 14.7131C46.0439 15.492 45.4987 16.0919 44.806 16.5128C44.1166 16.9304 43.3328 17.1392 42.4545 17.1392C41.5728 17.1392 40.7857 16.9304 40.093 16.5128C39.4036 16.0919 38.86 15.4903 38.4623 14.7081C38.0645 13.9259 37.8657 12.9929 37.8657 11.9091C37.8657 10.822 38.0645 9.88897 38.4623 9.11008C38.86 8.32789 39.4036 7.72798 40.093 7.31037C40.7857 6.88944 41.5728 6.67898 42.4545 6.67898C43.3328 6.67898 44.1166 6.88944 44.806 7.31037C45.4987 7.72798 46.0439 8.32789 46.4417 9.11008C46.8394 9.88897 47.0383 10.822 47.0383 11.9091ZM45.517 11.9091C45.517 11.0805 45.3827 10.3828 45.1143 9.81605C44.8491 9.24598 44.4845 8.8151 44.0205 8.52344C43.5598 8.22846 43.0378 8.08097 42.4545 8.08097C41.8678 8.08097 41.3441 8.22846 40.8834 8.52344C40.4227 8.8151 40.0581 9.24598 39.7897 9.81605C39.5245 10.3828 39.392 11.0805 39.392 11.9091C39.392 12.7377 39.5245 13.437 39.7897 14.0071C40.0581 14.5739 40.4227 15.0047 40.8834 15.2997C41.3441 15.5914 41.8678 15.7372 42.4545 15.7372C43.0378 15.7372 43.5598 15.5914 44.0205 15.2997C44.4845 15.0047 44.8491 14.5739 45.1143 14.0071C45.3827 13.437 45.517 12.7377 45.517 11.9091ZM50.3208 6.81818V17H48.8343V6.81818H50.3208ZM55.1792 17.1491C54.5628 17.1491 54.0126 16.9917 53.5287 16.6768C53.0481 16.3587 52.6702 15.9062 52.3952 15.3196C52.1234 14.7296 51.9875 14.022 51.9875 13.1967C51.9875 12.3714 52.125 11.6655 52.4001 11.0788C52.6785 10.4922 53.0597 10.0431 53.5436 9.73153C54.0275 9.41998 54.576 9.2642 55.1892 9.2642C55.6631 9.2642 56.0443 9.34375 56.3327 9.50284C56.6243 9.65862 56.8497 9.84091 57.0088 10.0497C57.1712 10.2585 57.2971 10.4425 57.3866 10.6016H57.4761V6.81818H58.9626V17H57.5109V15.8118H57.3866C57.2971 15.9742 57.1679 16.1598 56.9988 16.3686C56.8331 16.5774 56.6044 16.7597 56.3128 16.9155C56.0211 17.0713 55.6433 17.1491 55.1792 17.1491ZM55.5074 15.8814C55.9349 15.8814 56.2962 15.7687 56.5912 15.5433C56.8895 15.3146 57.1148 14.9981 57.2673 14.5938C57.4231 14.1894 57.501 13.7187 57.501 13.1818C57.501 12.6515 57.4247 12.1875 57.2723 11.7898C57.1198 11.392 56.8961 11.0821 56.6011 10.8601C56.3061 10.638 55.9416 10.527 55.5074 10.527C55.0599 10.527 54.6871 10.643 54.3888 10.875C54.0905 11.107 53.8651 11.4235 53.7126 11.8246C53.5635 12.2256 53.4889 12.678 53.4889 13.1818C53.4889 13.6922 53.5651 14.1513 53.7176 14.5589C53.8701 14.9666 54.0954 15.2898 54.3937 15.5284C54.6953 15.7637 55.0666 15.8814 55.5074 15.8814ZM64.3754 17.1541C63.6231 17.1541 62.9751 16.9934 62.4316 16.6719C61.8913 16.3471 61.4737 15.8913 61.1787 15.3047C60.887 14.7147 60.7412 14.0237 60.7412 13.2315C60.7412 12.4493 60.887 11.7599 61.1787 11.1634C61.4737 10.5668 61.8847 10.1011 62.4117 9.76633C62.942 9.43158 63.5618 9.2642 64.271 9.2642C64.7019 9.2642 65.1195 9.33546 65.5239 9.47798C65.9282 9.6205 66.2912 9.84422 66.6127 10.1491C66.9342 10.4541 67.1877 10.8501 67.3733 11.3374C67.5589 11.8213 67.6517 12.4096 67.6517 13.1023V13.6293H61.5814V12.5156H66.195C66.195 12.1245 66.1155 11.7782 65.9564 11.4766C65.7973 11.1716 65.5736 10.9313 65.2852 10.7557C65.0002 10.58 64.6655 10.4922 64.281 10.4922C63.8634 10.4922 63.4988 10.5949 63.1872 10.8004C62.879 11.0026 62.6404 11.2678 62.4713 11.5959C62.3056 11.9207 62.2227 12.2737 62.2227 12.6548V13.5249C62.2227 14.0353 62.3122 14.4695 62.4912 14.8274C62.6735 15.1854 62.9271 15.4588 63.2519 15.6477C63.5767 15.8333 63.9562 15.9261 64.3904 15.9261C64.6721 15.9261 64.9289 15.8864 65.161 15.8068C65.393 15.724 65.5935 15.6013 65.7625 15.4389C65.9316 15.2765 66.0608 15.076 66.1503 14.8374L67.5573 15.0909C67.4446 15.5052 67.2424 15.8681 66.9507 16.1797C66.6624 16.4879 66.2994 16.7282 65.8619 16.9006C65.4278 17.0696 64.9323 17.1541 64.3754 17.1541ZM69.301 17V9.36364H70.7378V10.5767H70.8174C70.9566 10.1657 71.2019 9.84257 71.5532 9.60724C71.9078 9.36861 72.3089 9.24929 72.7563 9.24929C72.8491 9.24929 72.9585 9.2526 73.0844 9.25923C73.2137 9.26586 73.3148 9.27415 73.3877 9.28409V10.706C73.328 10.6894 73.222 10.6712 73.0695 10.6513C72.9171 10.6281 72.7646 10.6165 72.6121 10.6165C72.2608 10.6165 71.9476 10.6911 71.6725 10.8402C71.4007 10.986 71.1853 11.1899 71.0262 11.4517C70.8671 11.7102 70.7876 12.0052 70.7876 12.3366V17H69.301Z" fill="#EE7C21"/>
</g>
</g>
<path d="M86.6665 15.3333L93.3332 8.66667M93.3332 8.66667H86.6665M93.3332 8.66667V15.3333" stroke="#EE7C21" stroke-width="1.33333" stroke-linecap="round" stroke-linejoin="round"/>
<defs>
<clipPath id="clip0_269_10554">
<rect width="74" height="24" fill="white"/>
</clipPath>
<clipPath id="clip1_269_10554">
<rect width="74" height="24" fill="white"/>
</clipPath>
</defs>
</svg>
