<svg width="585" height="469" viewBox="0 0 585 469" fill="none" xmlns="http://www.w3.org/2000/svg">
<g style="mix-blend-mode:overlay">
<path d="M265.001 457.191V470.334H251.858V457.191H265.001ZM263.278 468.611V458.914H253.581V468.611H263.278Z" fill="white"/>
<path d="M252.719 451.642H264.14V440.222H252.719V451.642Z" fill="white"/>
<path d="M288.379 451.642H299.8V440.222H288.379V451.642Z" fill="white"/>
<path d="M252.719 433.813H264.14V422.393H252.719V433.813Z" fill="white"/>
<path d="M270.549 433.813H281.969V422.393H270.549V433.813Z" fill="white"/>
<path d="M288.379 433.813H299.8V422.393H288.379V433.813Z" fill="white"/>
<path d="M270.549 415.983H281.969V404.563H270.549V415.983Z" fill="white"/>
<path d="M15.3765 385.871V399.018H2.23171V385.874L15.3765 385.871ZM13.6533 397.291V387.594H3.95603V397.291H13.6533Z" fill="white"/>
<path d="M51.0327 385.871V399.018H37.8892V385.874L51.0327 385.871ZM49.3097 397.291V387.594H39.6124V397.291H49.3097Z" fill="#ABABAB"/>
<path d="M86.6978 385.871V399.018H73.5543V385.874L86.6978 385.871ZM84.9746 397.291V387.594H75.2737V397.291H84.9746Z" fill="white"/>
<path d="M199.228 398.152H210.648V386.732H199.228V398.152Z" fill="white"/>
<path d="M217.058 398.152H228.479V386.732H217.058V398.152Z" fill="white"/>
<path d="M252.719 398.152H264.14V386.732H252.719V398.152Z" fill="white"/>
<path d="M270.549 398.152H281.969V386.732H270.549V398.152Z" fill="white"/>
<path d="M288.379 398.152H299.8V386.732H288.379V398.152Z" fill="#999999"/>
<path d="M51.0327 368.04V381.185H37.8892V368.04H51.0327ZM49.3097 379.461V369.763H39.6124V379.461H49.3097Z" fill="white"/>
<path d="M181.398 380.322H192.818V368.902H181.398V380.322Z" fill="white"/>
<path d="M199.228 380.322H210.648V368.902H199.228V380.322Z" fill="white"/>
<path d="M270.549 380.322H281.969V368.902H270.549V380.322Z" fill="white"/>
<path d="M288.379 380.322H299.8V368.902H288.379V380.322Z" fill="white"/>
<path d="M395.362 380.322H406.782V368.902H395.362V380.322Z" fill="white"/>
<path d="M413.192 380.322H424.613V368.902H413.192V380.322Z" fill="white"/>
<path d="M3.09449 362.493H14.5149V351.073H3.09449V362.493Z" fill="white"/>
<path d="M20.9252 362.493H32.3456V351.073H20.9252V362.493Z" fill="white"/>
<path d="M38.7545 362.493H50.1749V351.073H38.7545V362.493Z" fill="white"/>
<path d="M56.5851 362.493H68.0055V351.073H56.5851V362.493Z" fill="white"/>
<path d="M74.4158 362.493H85.8362V351.073H74.4158V362.493Z" fill="white"/>
<path d="M306.21 362.493H317.63V351.073H306.21V362.493Z" fill="white"/>
<path d="M324.041 362.493H335.461V351.073H324.041V362.493Z" fill="white"/>
<path d="M359.7 362.493H371.121V351.073H359.7V362.493Z" fill="white"/>
<path d="M377.531 362.493H388.951V351.073H377.531V362.493Z" fill="white"/>
<path d="M395.362 362.493H406.782V351.073H395.362V362.493Z" fill="white"/>
<path d="M20.9252 344.663H32.3456V333.242H20.9252V344.663Z" fill="white"/>
<path d="M56.5851 344.663H68.0055V333.242H56.5851V344.663Z" fill="white"/>
<path d="M74.4158 344.663H85.8362V333.242H74.4158V344.663Z" fill="white"/>
<path d="M324.041 344.663H335.461V333.242H324.041V344.663Z" fill="white"/>
<path d="M341.871 344.663H353.292V333.242H341.871V344.663Z" fill="white"/>
<path d="M359.7 344.663H371.121V333.242H359.7V344.663Z" fill="white"/>
<path d="M3.09449 326.832H14.5149V315.412H3.09449V326.832Z" fill="#999999"/>
<path d="M20.9252 326.832H32.3456V315.412H20.9252V326.832Z" fill="white"/>
<path d="M74.4158 326.832H85.8362V315.412H74.4158V326.832Z" fill="white"/>
<path d="M282.831 314.555V327.699H269.687V314.555H282.831ZM281.107 325.976V316.269H271.41V325.966L281.107 325.976Z" fill="white"/>
<path d="M288.379 326.832H299.8V315.412H288.379V326.832Z" fill="white"/>
<path d="M306.21 326.832H317.63V315.412H306.21V326.832Z" fill="white"/>
<path d="M324.041 326.832H335.461V315.412H324.041V326.832Z" fill="white"/>
<path d="M56.5851 309.002H68.0055V297.582H56.5851V309.002Z" fill="#999999"/>
<path d="M265.001 296.721V309.865H251.858V296.721H265.001ZM263.278 308.142V298.444H253.581V308.142H263.278Z" fill="white"/>
<path d="M288.379 309.002H299.8V297.582H288.379V309.002Z" fill="white"/>
<path d="M306.21 309.002H317.63V297.582H306.21V309.002Z" fill="white"/>
<path d="M324.041 309.002H335.461V297.582H324.041V309.002Z" fill="white"/>
<path d="M354.152 296.721V309.865H341.008V296.721H354.152ZM352.429 308.142V298.444H342.731V308.142H352.429Z" fill="#ABABAB"/>
<path d="M359.7 309.002H371.121V297.582H359.7V309.002Z" fill="white"/>
<path d="M377.531 309.002H388.951V297.582H377.531V309.002Z" fill="white"/>
<path d="M395.362 309.002H406.782V297.582H395.362V309.002Z" fill="white"/>
<path d="M413.192 309.002H424.613V297.582H413.192V309.002Z" fill="white"/>
<path d="M265.001 278.89V292.034H251.858V278.89H265.001ZM263.278 290.311V280.614H253.581V290.315L263.278 290.311Z" fill="white"/>
<path d="M282.831 278.89V292.034H269.687V278.89H282.831ZM281.107 290.311V280.614H271.41V290.315L281.107 290.311Z" fill="white"/>
<path d="M288.379 291.173H299.8V279.752H288.379V291.173Z" fill="white"/>
<path d="M324.039 291.173H335.46V279.752H324.039V291.173Z" fill="white"/>
<path d="M335.567 279.644V291.28H323.932V279.644H335.567ZM335.352 291.065V279.859H324.147V291.065H335.352Z" fill="white"/>
<path d="M359.7 291.173H371.121V279.752H359.7V291.173Z" fill="white"/>
<path d="M371.229 279.644V291.28H359.592V279.644H371.229ZM371.013 291.065V279.859H359.807V291.065H371.013Z" fill="white"/>
<path d="M377.531 291.173H388.952V279.752H377.531V291.173Z" fill="white"/>
<path d="M389.059 279.644V291.28H377.423V279.644H389.059ZM388.844 291.065V279.859H377.639V291.065H388.844Z" fill="white"/>
<path d="M15.3765 261.062V274.205H2.23171V261.062H15.3765ZM13.6533 272.482V262.785H3.95603V272.482H13.6533Z" fill="white"/>
<path d="M20.9252 273.342H32.3456V261.922H20.9252V273.342Z" fill="white"/>
<path d="M56.5851 273.342H68.0055V261.922H56.5851V273.342Z" fill="white"/>
<path d="M74.4158 273.342H85.8362V261.922H74.4158V273.342Z" fill="white"/>
<path d="M265.001 261.062V274.205H251.858V261.062H265.001ZM263.278 272.482V262.785H253.581V272.482H263.278Z" fill="white"/>
<path d="M282.831 261.062V274.205H269.687V261.062H282.831ZM281.107 272.482V262.785H271.41V272.482H281.107Z" fill="white"/>
<path d="M288.379 273.342H299.8V261.922H288.379V273.342Z" fill="white"/>
<path d="M306.21 273.342H317.63V261.922H306.21V273.342Z" fill="white"/>
<path d="M317.738 261.814V273.45H306.102V261.814H317.738ZM317.523 273.235V262.03H306.318V273.236L317.523 273.235Z" fill="white"/>
<path d="M324.039 273.342H335.46V261.922H324.039V273.342Z" fill="white"/>
<path d="M335.567 261.814V273.45H323.932V261.814H335.567ZM335.352 273.235V262.03H324.147V273.236L335.352 273.235Z" fill="white"/>
<path d="M341.87 273.342H353.29V261.922H341.87V273.342Z" fill="white"/>
<path d="M353.398 261.814V273.45H341.762V261.814H353.398ZM353.183 273.235V262.03H341.978V273.236L353.183 273.235Z" fill="white"/>
<path d="M359.7 273.342H371.121V261.922H359.7V273.342Z" fill="white"/>
<path d="M371.229 261.814V273.45H359.592V261.814H371.229ZM371.013 273.235V262.03H359.807V273.236L371.013 273.235Z" fill="white"/>
<path d="M484.513 273.342H495.934V261.922H484.513V273.342Z" fill="white"/>
<path d="M20.9252 255.512H32.3456V244.092H20.9252V255.512Z" fill="white"/>
<path d="M74.4158 255.512H85.8362V244.092H74.4158V255.512Z" fill="white"/>
<path d="M92.2466 255.512H103.667V244.092H92.2466V255.512Z" fill="white"/>
<path d="M110.077 255.512H121.497V244.092H110.077V255.512Z" fill="white"/>
<path d="M324.039 255.512H335.46V244.092H324.039V255.512Z" fill="white"/>
<path d="M335.567 243.982V255.62H323.932V243.982H335.567ZM335.352 255.402V244.197H324.147V255.402H335.352Z" fill="white"/>
<path d="M341.87 255.512H353.29V244.092H341.87V255.512Z" fill="white"/>
<path d="M353.398 243.982V255.62H341.762V243.982H353.398ZM353.183 255.402V244.197H341.978V255.402H353.183Z" fill="white"/>
<path d="M448.852 255.512H460.273V244.092H448.852V255.512Z" fill="white"/>
<path d="M463.978 258.217H475.399V246.796H463.978V258.217Z" fill="white"/>
<path d="M484.513 255.512H495.934V244.092H484.513V255.512Z" fill="white"/>
<path d="M3.09449 237.682H14.5149V226.261H3.09449V237.682Z" fill="white"/>
<path d="M38.7545 237.682H50.1749V226.261H38.7545V237.682Z" fill="white"/>
<path d="M110.077 237.682H121.497V226.261H110.077V237.682Z" fill="white"/>
<path d="M354.152 225.4V238.544H341.008V225.4H354.152ZM352.429 236.82V227.123H342.731V236.82H352.429Z" fill="white"/>
<path d="M371.982 225.4V238.544H358.838V225.4H371.982ZM370.259 236.82V227.123H360.561V236.82H370.259Z" fill="white"/>
<path d="M395.362 237.682H406.782V226.261H395.362V237.682Z" fill="white"/>
<path d="M443.305 225.4V238.544H430.155V225.4H443.305ZM441.582 236.82V227.123H431.884V236.82H441.582Z" fill="#ABABAB"/>
<path d="M448.852 237.682H460.273V226.261H448.852V237.682Z" fill="white"/>
<path d="M466.683 237.682H478.104V226.261H466.683V237.682Z" fill="white"/>
<path d="M20.9252 219.853H32.3456V208.432H20.9252V219.853Z" fill="white"/>
<path d="M56.5851 219.853H68.0055V208.432H56.5851V219.853Z" fill="white"/>
<path d="M74.4158 219.853H85.8362V208.432H74.4158V219.853Z" fill="white"/>
<path d="M110.077 219.853H121.497V208.432H110.077V219.853Z" fill="white"/>
<path d="M145.737 219.853H157.157V208.432H145.737V219.853Z" fill="white"/>
<path d="M163.568 219.853H174.988V208.432H163.568V219.853Z" fill="white"/>
<path d="M181.398 219.853H192.818V208.432H181.398V219.853Z" fill="white"/>
<path d="M217.058 219.853H228.479V208.432H217.058V219.853Z" fill="white"/>
<path d="M282.831 207.567V220.71H269.687V207.567H282.831ZM281.107 218.987V209.29H271.41V218.987H281.107Z" fill="white"/>
<path d="M306.21 219.853H317.63V208.432H306.21V219.853Z" fill="white"/>
<path d="M324.041 219.853H335.461V208.432H324.041V219.853Z" fill="white"/>
<path d="M354.152 207.567V220.71H341.008V207.567H354.152ZM352.429 218.987V209.29H342.731V218.987H352.429Z" fill="white"/>
<path d="M371.982 207.567V220.71H358.838V207.567H371.982ZM370.259 218.987V209.29H360.561V218.987H370.259Z" fill="white"/>
<path d="M389.813 207.567V220.71H376.67V207.567H389.813ZM388.09 218.987V209.29H378.393V218.987H388.09Z" fill="white"/>
<path d="M395.362 219.853H406.782V208.432H395.362V219.853Z" fill="white"/>
<path d="M413.192 219.853H424.613V208.432H413.192V219.853Z" fill="white"/>
<path d="M431.022 219.853H442.442V208.432H431.022V219.853Z" fill="white"/>
<path d="M448.852 219.853H460.273V208.432H448.852V219.853Z" fill="white"/>
<path d="M484.513 219.853H495.934V208.432H484.513V219.853Z" fill="white"/>
<path d="M38.7545 202.022H50.1749V190.602H38.7545V202.022Z" fill="white"/>
<path d="M74.4158 202.022H85.8362V190.602H74.4158V202.022Z" fill="white"/>
<path d="M92.2466 202.022H103.667V190.602H92.2466V202.022Z" fill="white"/>
<path d="M110.077 202.022H121.497V190.602H110.077V202.022Z" fill="white"/>
<path d="M140.188 189.74V202.884H127.045V189.74H140.188ZM138.465 201.161V191.464H128.769V201.161H138.465Z" fill="white"/>
<path d="M158.022 189.74V202.884H144.879V189.74H158.022ZM156.299 201.161V191.464H146.602V201.161H156.299Z" fill="white"/>
<path d="M175.849 189.74V202.884H162.705V189.74H175.849ZM174.125 201.161V191.464H164.428V201.161H174.125Z" fill="white"/>
<path d="M232.184 204.727H243.604V193.307H232.184V204.727Z" fill="white"/>
<path d="M270.549 202.022H281.969V190.602H270.549V202.022Z" fill="white"/>
<path d="M288.379 202.022H299.8V190.602H288.379V202.022Z" fill="white"/>
<path d="M306.21 202.022H317.63V190.602H306.21V202.022Z" fill="white"/>
<path d="M324.041 202.022H335.461V190.602H324.041V202.022Z" fill="white"/>
<path d="M341.871 202.022H353.292V190.602H341.871V202.022Z" fill="#999999"/>
<path d="M359.7 202.022H371.121V190.602H359.7V202.022Z" fill="white"/>
<path d="M377.531 202.022H388.951V190.602H377.531V202.022Z" fill="white"/>
<path d="M413.192 202.022H424.613V190.602H413.192V202.022Z" fill="white"/>
<path d="M448.852 202.022H460.273V190.602H448.852V202.022Z" fill="white"/>
<path d="M56.5851 184.192H68.0055V172.772H56.5851V184.192Z" fill="white"/>
<path d="M92.2466 184.192H103.667V172.772H92.2466V184.192Z" fill="white"/>
<path d="M158.022 171.91V185.053H144.879V171.91H158.022ZM156.299 183.33V173.633H146.602V183.325L156.299 183.33Z" fill="white"/>
<path d="M175.849 171.91V185.053H162.705V171.91H175.849ZM174.125 183.33V173.633H164.428V183.325L174.125 183.33Z" fill="#ABABAB"/>
<path d="M181.398 184.192H192.818V172.772H181.398V184.192Z" fill="white"/>
<path d="M234.889 184.192H246.309V172.772H234.889V184.192Z" fill="white"/>
<path d="M270.549 184.192H281.969V172.772H270.549V184.192Z" fill="white"/>
<path d="M306.21 184.192H317.63V172.772H306.21V184.192Z" fill="white"/>
<path d="M324.041 184.192H335.461V172.772H324.041V184.192Z" fill="white"/>
<path d="M341.871 184.192H353.292V172.772H341.871V184.192Z" fill="white"/>
<path d="M359.7 184.192H371.121V172.772H359.7V184.192Z" fill="#999999"/>
<path d="M374.827 186.896H386.247V175.476H374.827V186.896Z" fill="white"/>
<path d="M395.362 184.192H406.782V172.772H395.362V184.192Z" fill="white"/>
<path d="M431.022 184.192H442.442V172.772H431.022V184.192Z" fill="white"/>
<path d="M448.852 184.192H460.273V172.772H448.852V184.192Z" fill="white"/>
<path d="M478.965 171.91V185.053H465.821V171.91H478.965ZM477.242 183.33V173.633H467.544V183.325L477.242 183.33Z" fill="#ABABAB"/>
<path d="M484.513 184.192H495.934V172.772H484.513V184.192Z" fill="white"/>
<path d="M38.7545 166.361H50.1749V154.941H38.7545V166.361Z" fill="white"/>
<path d="M74.4158 166.361H85.8362V154.941H74.4158V166.361Z" fill="white"/>
<path d="M110.077 166.361H121.497V154.941H110.077V166.361Z" fill="white"/>
<path d="M127.906 166.361H139.327V154.941H127.906V166.361Z" fill="white"/>
<path d="M163.568 166.361H174.988V154.941H163.568V166.361Z" fill="white"/>
<path d="M181.398 166.361H192.818V154.941H181.398V166.361Z" fill="white"/>
<path d="M252.719 166.361H264.14V154.941H252.719V166.361Z" fill="white"/>
<path d="M267.844 169.066H279.265V157.646H267.844V169.066Z" fill="white"/>
<path d="M318.492 154.081V167.224H305.348V154.081H318.492ZM316.769 165.501V155.804H307.071V165.501H316.769Z" fill="white"/>
<path d="M371.982 154.081V167.224H358.838V154.081H371.982ZM370.259 165.501V155.804H360.561V165.501H370.259Z" fill="white"/>
<path d="M377.531 166.361H388.951V154.941H377.531V166.361Z" fill="white"/>
<path d="M395.362 166.361H406.782V154.941H395.362V166.361Z" fill="white"/>
<path d="M413.192 166.361H424.613V154.941H413.192V166.361Z" fill="white"/>
<path d="M431.022 166.361H442.442V154.941H431.022V166.361Z" fill="white"/>
<path d="M478.965 154.081V167.224H465.821V154.081H478.965ZM477.242 165.501V155.804H467.544V165.501H477.242Z" fill="white"/>
<path d="M15.3765 136.251V149.394H2.23171V136.251H15.3765ZM13.6533 147.671V137.974H3.95603V147.671H13.6533Z" fill="white"/>
<path d="M38.7545 148.531H50.1749V137.111H38.7545V148.531Z" fill="white"/>
<path d="M56.5851 148.531H68.0055V137.111H56.5851V148.531Z" fill="white"/>
<path d="M127.906 148.531H139.327V137.111H127.906V148.531Z" fill="white"/>
<path d="M145.737 148.531H157.157V137.111H145.737V148.531Z" fill="white"/>
<path d="M181.398 148.531H192.818V137.111H181.398V148.531Z" fill="white"/>
<path d="M234.889 148.531H246.309V137.111H234.889V148.531Z" fill="white"/>
<path d="M250.015 151.236H261.435V139.815H250.015V151.236Z" fill="white"/>
<path d="M270.549 148.531H281.969V137.111H270.549V148.531Z" fill="white"/>
<path d="M288.379 148.531H299.8V137.111H288.379V148.531Z" fill="white"/>
<path d="M318.492 136.251V149.394H305.348V136.251H318.492ZM316.769 147.671V137.974H307.071V147.671H316.769Z" fill="white"/>
<path d="M377.531 148.531H388.951V137.111H377.531V148.531Z" fill="white"/>
<path d="M425.473 136.251V149.394H412.33V136.251H425.473ZM423.75 147.671V137.974H414.053V147.671H423.75Z" fill="white"/>
<path d="M478.965 136.251V149.394H465.821V136.251H478.965ZM477.242 147.671V137.974H467.544V147.671H477.242Z" fill="white"/>
<path d="M496.795 136.251V149.394H483.651V136.251H496.795ZM495.072 147.671V137.974H485.375V147.671H495.072Z" fill="white"/>
<path d="M145.737 130.702H157.157V119.282H145.737V130.702Z" fill="white"/>
<path d="M92.2466 130.702H103.667V119.282H92.2466V130.702Z" fill="white"/>
<path d="M163.568 130.702H174.988V119.282H163.568V130.702Z" fill="white"/>
<path d="M270.549 130.702H281.969V119.282H270.549V130.702Z" fill="white"/>
<path d="M359.7 130.702H371.121V119.282H359.7V130.702Z" fill="white"/>
<path d="M377.531 130.702H388.951V119.282H377.531V130.702Z" fill="white"/>
<path d="M395.362 130.702H406.782V119.282H395.362V130.702Z" fill="white"/>
<path d="M425.473 118.419V131.563H412.33V118.419H425.473ZM423.75 129.84V120.143H414.053V129.84H423.75Z" fill="white"/>
<path d="M443.305 118.419V131.563H430.155V118.419H443.305ZM441.582 129.84V120.143H431.884V129.84H441.582Z" fill="white"/>
<path d="M3.09449 112.872H14.5149V101.451H3.09449V112.872Z" fill="white"/>
<path d="M20.9252 112.872H32.3456V101.451H20.9252V112.872Z" fill="white"/>
<path d="M38.7545 112.872H50.1749V101.451H38.7545V112.872Z" fill="white"/>
<path d="M68.8671 100.59V113.733H55.7236V100.59H68.8671ZM67.144 112.01V102.313H57.4467V112.01H67.144Z" fill="#ABABAB"/>
<path d="M74.4158 112.872H85.8362V101.451H74.4158V112.872Z" fill="white"/>
<path d="M140.188 100.59V113.733H127.045V100.59H140.188ZM138.465 112.01V102.313H128.769V112.01H138.465Z" fill="white"/>
<path d="M158.022 100.59V113.733H144.879V100.59H158.022ZM156.299 112.01V102.313H146.602V112.01H156.299Z" fill="white"/>
<path d="M175.849 100.59V113.733H162.705V100.59H175.849ZM174.125 112.01V102.313H164.428V112.01H174.125Z" fill="white"/>
<path d="M199.228 112.872H210.648V101.451H199.228V112.872Z" fill="white"/>
<path d="M234.889 112.872H246.309V101.451H234.889V112.872Z" fill="white"/>
<path d="M282.831 100.59V113.733H269.687V100.59H282.831ZM281.107 112.01V102.313H271.41V112.01H281.107Z" fill="#ABABAB"/>
<path d="M288.379 112.872H299.8V101.451H288.379V112.872Z" fill="white"/>
<path d="M354.152 100.59V113.733H341.008V100.59H354.152ZM352.429 112.01V102.313H342.731V112.01H352.429Z" fill="white"/>
<path d="M371.982 100.59V113.733H358.838V100.59H371.982ZM370.259 112.01V102.313H360.561V112.01H370.259Z" fill="white"/>
<path d="M389.813 100.59V113.733H376.67V100.59H389.813ZM388.09 112.01V102.313H378.393V112.01H388.09Z" fill="white"/>
<path d="M443.305 100.59V113.733H430.155V100.59H443.305ZM441.582 112.01V102.313H431.884V112.01H441.582Z" fill="white"/>
<path d="M74.4158 95.0413H85.8362V83.621H74.4158V95.0413Z" fill="white"/>
<path d="M92.2466 95.0415H103.667V83.6213H92.2466V95.0415Z" fill="white"/>
<path d="M110.077 95.0413H121.497V83.621H110.077V95.0413Z" fill="white"/>
<path d="M140.188 82.7595V95.9028H127.045V82.7595H140.188ZM138.465 94.1797V84.4826H128.769V94.1797H138.465Z" fill="white"/>
<path d="M175.849 82.7595V95.9028H162.705V82.7595H175.849ZM174.125 94.1797V84.4826H164.428V94.1797H174.125Z" fill="#ABABAB"/>
<path d="M181.398 95.0413H192.818V83.621H181.398V95.0413Z" fill="white"/>
<path d="M199.228 95.0413H210.648V83.621H199.228V95.0413Z" fill="white"/>
<path d="M232.184 97.7458H243.604V86.3256H232.184V97.7458Z" fill="white"/>
<path d="M252.719 95.0413H264.14V83.621H252.719V95.0413Z" fill="white"/>
<path d="M288.379 95.0413H299.8V83.621H288.379V95.0413Z" fill="white"/>
<path d="M318.492 82.7595V95.9028H305.348V82.7595H318.492ZM316.769 94.1797V84.4826H307.071V94.1797H316.769Z" fill="white"/>
<path d="M336.322 82.7595V95.9028H323.179V82.7595H336.322ZM334.598 94.1797V84.4826H324.901V94.1797H334.598Z" fill="#ABABAB"/>
<path d="M354.152 82.7595V95.9028H341.008V82.7595H354.152ZM352.429 94.1797V84.4826H342.731V94.1797H352.429Z" fill="white"/>
<path d="M359.7 95.0413H371.121V83.621H359.7V95.0413Z" fill="white"/>
<path d="M377.531 95.0413H388.951V83.621H377.531V95.0413Z" fill="#999999"/>
<path d="M395.362 95.0413H406.782V83.621H395.362V95.0413Z" fill="white"/>
<path d="M413.192 95.0413H424.613V83.621H413.192V95.0413Z" fill="white"/>
<path d="M20.9252 77.2109H32.3456V65.7907H20.9252V77.2109Z" fill="white"/>
<path d="M38.7545 77.2109H50.1749V65.7907H38.7545V77.2109Z" fill="white"/>
<path d="M110.077 77.2109H121.497V65.7907H110.077V77.2109Z" fill="white"/>
<path d="M140.188 64.9292V78.0725H127.045V64.9292H140.188ZM138.465 76.3495V66.651H128.769V76.3495H138.465Z" fill="white"/>
<path d="M175.849 64.9292V78.0725H162.705V64.9292H175.849ZM174.125 76.3495V66.651H164.428V76.3495H174.125Z" fill="white"/>
<path d="M181.398 77.2109H192.818V65.7907H181.398V77.2109Z" fill="white"/>
<path d="M234.889 77.2109H246.309V65.7907H234.889V77.2109Z" fill="white"/>
<path d="M252.719 77.2109H264.14V65.7907H252.719V77.2109Z" fill="white"/>
<path d="M270.549 77.2109H281.969V65.7907H270.549V77.2109Z" fill="white"/>
<path d="M288.379 77.2109H299.8V65.7907H288.379V77.2109Z" fill="white"/>
<path d="M318.492 64.9292V78.0725H305.348V64.9292H318.492ZM316.769 76.3495V66.651H307.071V76.3495H316.769Z" fill="#ABABAB"/>
<path d="M354.152 64.9292V78.0725H341.008V64.9292H354.152ZM352.429 76.3495V66.651H342.731V76.3495H352.429Z" fill="white"/>
<path d="M395.362 77.2109H406.782V65.7907H395.362V77.2109Z" fill="white"/>
<path d="M431.022 77.2109H442.442V65.7907H431.022V77.2109Z" fill="white"/>
<path d="M448.852 77.2109H460.273V65.7907H448.852V77.2109Z" fill="white"/>
<path d="M484.513 77.2109H495.934V65.7907H484.513V77.2109Z" fill="white"/>
<path d="M15.3765 47.0988V60.2422H2.23171V47.0988H15.3765ZM13.6533 58.5191V48.8219H3.95603V58.5191H13.6533Z" fill="#ABABAB"/>
<path d="M38.7545 59.3818H50.1749V47.9616H38.7545V59.3818Z" fill="white"/>
<path d="M74.4158 59.3818H85.8362V47.9616H74.4158V59.3818Z" fill="white"/>
<path d="M92.2466 59.3818H103.667V47.9616H92.2466V59.3818Z" fill="white"/>
<path d="M199.228 59.3818H210.648V47.9616H199.228V59.3818Z" fill="white"/>
<path d="M252.719 59.3818H264.14V47.9616H252.719V59.3818Z" fill="#999999"/>
<path d="M288.379 59.3818H299.8V47.9616H288.379V59.3818Z" fill="white"/>
<path d="M318.492 47.0988V60.2422H305.348V47.0988H318.492ZM316.769 58.5191V48.8219H307.071V58.5191H316.769Z" fill="white"/>
<path d="M336.322 47.0988V60.2422H323.179V47.0988H336.322ZM334.598 58.5191V48.8219H324.901V58.5191H334.598Z" fill="white"/>
<path d="M354.152 47.0988V60.2422H341.008V47.0988H354.152ZM352.429 58.5191V48.8219H342.731V58.5191H352.429Z" fill="white"/>
<path d="M359.7 59.3818H371.121V47.9616H359.7V59.3818Z" fill="white"/>
<path d="M377.531 59.3818H388.951V47.9616H377.531V59.3818Z" fill="white"/>
<path d="M413.192 59.3818H424.613V47.9616H413.192V59.3818Z" fill="white"/>
<path d="M431.022 59.3818H442.442V47.9616H431.022V59.3818Z" fill="white"/>
<path d="M448.852 59.3818H460.273V47.9616H448.852V59.3818Z" fill="white"/>
<path d="M466.683 59.3818H478.104V47.9616H466.683V59.3818Z" fill="white"/>
<path d="M484.513 59.3818H495.934V47.9616H484.513V59.3818Z" fill="white"/>
<path d="M38.7545 41.5514H50.1749V30.1312H38.7545V41.5514Z" fill="white"/>
<path d="M56.5851 41.5514H68.0055V30.1312H56.5851V41.5514Z" fill="white"/>
<path d="M92.2466 41.5513H103.667V30.131H92.2466V41.5513Z" fill="#999999"/>
<path d="M175.849 29.2697V42.413H162.705V29.2697H175.849ZM174.125 40.6899V30.9928H164.428V40.6899H174.125Z" fill="white"/>
<path d="M234.889 41.5514H246.309V30.1312H234.889V41.5514Z" fill="white"/>
<path d="M252.719 41.5514H264.14V30.1312H252.719V41.5514Z" fill="#999999"/>
<path d="M270.549 41.5514H281.969V30.1312H270.549V41.5514Z" fill="white"/>
<path d="M288.379 41.5514H299.8V30.1312H288.379V41.5514Z" fill="white"/>
<path d="M389.813 29.2697V42.413H376.67V29.2697H389.813ZM388.09 40.6899V30.9928H378.393V40.6899H388.09Z" fill="white"/>
<path d="M425.473 29.2697V42.413H412.33V29.2697H425.473ZM423.75 40.6899V30.9928H414.053V40.6899H423.75Z" fill="white"/>
<path d="M443.305 29.2697V42.413H430.155V29.2697H443.305ZM441.582 40.6899V30.9928H431.884V40.6899H441.582Z" fill="white"/>
<path d="M466.683 41.5513H478.104V30.131H466.683V41.5513Z" fill="white"/>
<path d="M20.9252 23.7211H32.3456V12.3008H20.9252V23.7211Z" fill="white"/>
<path d="M502.258 183.176H513.679V171.756H502.258V183.176Z" fill="white"/>
<path d="M537.918 183.176H549.339V171.756H537.918V183.176Z" fill="white"/>
<path d="M573.58 183.176H585V171.756H573.58V183.176Z" fill="white"/>
<path d="M555.749 165.346H567.169V153.925H555.749V165.346Z" fill="#999999"/>
<path d="M520.089 147.517H531.509V136.096H520.089V147.517Z" fill="white"/>
<path d="M520.089 129.687H531.509V118.266H520.089V129.687Z" fill="white"/>
<path d="M573.58 129.687H585V118.266H573.58V129.687Z" fill="white"/>
<path d="M38.7545 23.7211H50.1749V12.3008H38.7545V23.7211Z" fill="white"/>
<path d="M92.2466 23.7212H103.667V12.301H92.2466V23.7212Z" fill="white"/>
<path d="M217.058 23.7211H228.479V12.3008H217.058V23.7211Z" fill="white"/>
<path d="M252.719 23.7211H264.14V12.3008H252.719V23.7211Z" fill="white"/>
<path d="M270.549 23.7211H281.969V12.3008H270.549V23.7211Z" fill="white"/>
<path d="M318.492 11.4393V24.5826H305.348V11.4393H318.492ZM316.769 22.8596V13.1624H307.071V22.8596H316.769Z" fill="white"/>
<path d="M336.322 11.4393V24.5826H323.179V11.4393H336.322ZM334.598 22.8596V13.1624H324.901V22.8596H334.598Z" fill="white"/>
<path d="M354.152 11.4393V24.5826H341.008V11.4393H354.152ZM352.429 22.8596V13.1624H342.731V22.8596H352.429Z" fill="white"/>
<path d="M407.644 11.4393V24.5826H394.5V11.4393H407.644ZM405.919 22.8596V13.1624H396.222V22.8596H405.919Z" fill="white"/>
<path d="M74.4158 5.89075H85.8362V-5.52949H74.4158V5.89075Z" fill="white"/>
<path d="M175.849 -6.3911V6.7522H162.705V-6.3911H175.849ZM174.125 5.0291V-4.66801H164.428V5.0291H174.125Z" fill="white"/>
<path d="M217.058 5.89075H228.479V-5.52949H217.058V5.89075Z" fill="white"/>
<path d="M247.171 -6.39086V6.75244H234.026V-6.39086H247.171ZM245.447 5.02935V-4.66776H235.749V5.02935H245.447Z" fill="#ABABAB"/>
<path d="M252.719 5.89075H264.14V-5.52949H252.719V5.89075Z" fill="white"/>
<path d="M354.152 -6.3911V6.7522H341.008V-6.3911H354.152ZM352.429 5.0291V-4.66801H342.731V5.0291H352.429Z" fill="white"/>
<path d="M389.813 -6.3911V6.7522H376.67V-6.3911H389.813ZM388.09 5.0291V-4.66801H378.393V5.0291H388.09Z" fill="white"/>
<path d="M407.644 -6.3911V6.7522H394.5V-6.3911H407.644ZM405.919 5.0291V-4.66801H396.222V5.0291H405.919Z" fill="white"/>
</g>
</svg>
